<?xml version="1.0" encoding="utf-8"?>
<svg version="1.1" id="Layer_1" xmlns="http://www.w3.org/2000/svg" xmlns:xlink="http://www.w3.org/1999/xlink" x="0px" y="0px" viewBox="133.77 315.54 685.23 368.91" style="enable-background:new 133.77 315.54 685.23 368.91;" xml:space="preserve">
    <g>
        <g>
            <path style="fill-rule:evenodd;clip-rule:evenodd;fill:#13017C;" d="M638.667,522.647l0.172-0.685L638.667,522.647
			L638.667,522.647z M578.435,569.164c-20.769,0-7.227-45.896-3.622-56.2c3.846-10.984,14.394-33.805,23.468-40.559
			c10.431-7.78,21.941-7.735,34.416-5.919c2.777,0.393,14.738,2.943,17.431,4.224l-4.366,21.766l-7.094,14.252
			c-2.408,4.632-9.393,15.888-12.34,19.826l-13.785,17.743l-12.837,13.959C595.203,562.758,584.782,569.164,578.435,569.164
			L578.435,569.164z M638.667,522.647c0,2.066-2.911,15.895-3.548,19.095c-1.244,6.319-2.352,12.507-3.658,18.956
			c-2.56,12.65,0.876,27.866,15.78,27.919c14.503,0.042,27.592-9.054,36.759-16.809c3.248-2.745,4.284-4.005,7.317-7.01
			c0.997-1.004,4.674-5.328,5.067-6.413c0.283-0.822,1.533-8.736,1.533-9.928l-7.462,7.82c-0.048,0.052-0.113,0.13-0.14,0.176
			c-0.334,0.318,0,0.029-0.502,0.471c-4.133,3.567-7.55,7.433-12.67,10.903c-4.275,2.927-13.237,9.278-18.689,6.081
			c-5.729-3.362-2.189-16.688-1.227-21.551c0.694-3.548,1.57-7.261,2.335-11.042c3.672-18.559,7.962-36.972,11.63-55.282
			l6.975-33.476c-3.567,0-7.361-0.595-9.555-0.66c-13.991-0.701-28.601-1.374-42.471,0.878c-7.956,1.283-14.889,3.261-21.347,6.048
			c-5.046,2.167-10.983,5.536-15.397,8.836l-5.677,4.506c-5.744,4.327-13.192,11.581-17.497,16.918
			c-11.6,14.41-18.627,27.73-22.903,45.929c-3.178,13.583-3.914,32.951,5.263,45.227c10.379,13.904,26.355,8.596,38.876,1.14
			c3.467-2.066,6.649-4.678,9.772-7.134c0.779-0.558,1.13-1.017,1.88-1.621c4.088-3.303,6.905-6.351,10.632-10.064l6.514-7.192
			c6.16-7.273,16.277-21.558,21.01-30.601C637.843,523.69,637.779,523.281,638.667,522.647L638.667,522.647z"/>
            <path style="fill-rule:evenodd;clip-rule:evenodd;fill:#13017C;" d="M311.444,423.22l-21.853-0.198v-12.871l24.394-0.159
			c0.036-2.164,0.891-5.331,1.295-7.446c3.746-18.88,3.318-30.612,15.624-45.867c8.967-11.084,24.334-14.807,38.312-10.675
			c2.431,0.74,4.274,1.517,6.353,2.569l5.955,2.972l18.88-18.721c-1.782-0.13-4.889-0.744-6.536-0.948
			c-21.913-1.14-41.471,0.441-60.906,12.189c-21.726,13.153-37.378,37.095-42.741,61.775c-1.158,5.341-0.462,4.136-2.98,4.019
			l-30.029-0.049c-1.673,0.081-1.567,0.231-1.579,1.92l0.045,11.504h31.217c0,1.816-2.096,12.257-2.548,14.986
			c-0.813,4.918-1.736,9.795-2.676,14.83c-3.685,19.424-6.855,40.562-10.622,59.797c-0.989,5.009-1.798,9.885-2.641,14.894
			c-0.824,5.023-1.806,9.977-2.727,15.1c-4.769,26.551-7.806,63.578-38.125,67.33c-12.303,1.537-20.321-1.666-30.514-4.041
			l-3.779,4.506c-1.288,1.591-2.699,2.911-3.998,4.59l-6.828,7.845c-0.853,1.079-1.172,1.082-1.297,2.589
			c15.807,0,31.719,1.946,46.858-3.567c1.251-0.452,2.396-0.887,3.688-1.394c7.736-3.073,13.244-6.91,19.569-11.978l5.235-4.958
			c1.561-2.03,4.527-5.025,7.282-8.657c1.575-2.063,2.823-4.11,4.282-6.257c1.393-2.108,2.482-4.113,3.772-6.409
			c11.39-20.385,18.584-48.096,23.108-70.865c1.126-5.626,2.431-11.873,3.394-17.649c2.893-17.416,6.88-35.647,9.833-52.937
			L311.444,423.22L311.444,423.22z"/>
            <path style="fill-rule:evenodd;clip-rule:evenodd;fill:#FE4D11;" d="M311.444,423.22l502.141,0.013L819,409.853l-92.084-0.094
			l-4.474,0.199c-3.917-0.501-203.253-0.104-204.557-0.104c-63.804,0-127.642,0-191.474,0c-3.625,0-9.821,0.299-12.426,0.14
			l-24.394,0.159v12.871L311.444,423.22L311.444,423.22z"/>
            <path style="fill-rule:evenodd;clip-rule:evenodd;fill:#FE4D11;" d="M730.111,463.065c4.093,0,8.516-0.299,11.702,2.937
			c5.418,5.448,1.973,16.042,0.796,22.314c-0.835,4.548-1.592,8.606-2.496,13.115l-7.429,39.081
			c-1.44,7.143-7.04,34.545-7.04,39.799c0,7.455,0.529,15.35,5.799,20.658c5.18,5.181,9.155,6.757,17.136,6.757
			c10.867,0,23.679-6.874,32.126-12.494l18.692-14.762c0.449-1.062,0.169-9.161,0.169-10.993c-1.484,0.4-2.901,2.742-4.733,4.211
			c-5.89,4.677-7.911,7.247-15.723,11.994c-4.505,2.729-14.707,7.709-19.209,2.118c-4.167-5.188-2.122-14.778-0.936-20.677
			l26.898-132.731c-1.575,0.747-4.321,1.394-6.244,2.03c-10.196,3.411-21.558,6.634-31.715,10.032l-31.695,10.054
			c-3.355,0.961-5.389,1.238-5.551,3.041c-0.881,9.515-1.097,8.544,2.17,7.598c1.023-0.302,2.359-0.601,3.538-0.935
			C718.982,465.462,727.705,463.065,730.111,463.065L730.111,463.065z"/>
            <path style="fill-rule:evenodd;clip-rule:evenodd;fill:#13017C;" d="M446.519,489.193c0,10.737,3.327,17.929,9.649,24.134
			l18.124,20.437c2.959,3.674,5.74,5.519,8.462,10.973c6.262,12.498,3.204,26.015-11.81,29.4c-3.531,0.78-5.918,0.535-9.449,0.448
			c-5.028-0.126-11.841-2.517-16.386-4.327c-7.066-2.83-8.093-4.09-13.872-7.14c-1.126,1.68-8.527,8.849-10.122,10.587l-6.133,6.605
			c2.711,1.442,12.817,4.427,15.694,5.035c20.414,4.314,40.204,3.161,57.402-8.713c3.97-2.758,9.298-7.965,11.768-12.143
			c1.665-2.804,2.701-4.519,3.842-7.936c3.6-10.883,1.343-22.201-5.504-30.758l-20.934-25.579
			c-2.515-3.187-6.307-7.115-7.995-10.502c-2.254-4.526-3.986-8.489-3.297-14.863c1.083-10.148,12.608-15.921,21.343-15.921
			c4.029,0,7.205-0.107,11.122,1.309c5.758,2.073,11.83,6.647,11.83,13.657c0,5.208-0.392,4.028-0.649,7.007h7.974
			c0.716-1.452,2.784-11.035,3.274-13.293l3.096-13.787c-2.963-0.695-5.088-2.251-11.881-3.421
			c-13.605-2.322-26.175-1.273-38.788,4.376c-4.516,2.024-10.431,5.468-13.917,9.005l-2.885,2.862
			C450.923,473.002,446.519,479.659,446.519,489.193L446.519,489.193z"/>
            <path style="fill-rule:evenodd;clip-rule:evenodd;fill:#13017C;" d="M334.051,490.148c0,6.711,2.437,14.433,6.511,19.631
			l15.298,17.202c0.586,0.75,0.886,0.984,1.537,1.637l7.809,8.768c3.381,3.327,8.363,11.513,8.363,18.072
			c0,6.267-1.697,11.49-6.197,14.843c-11.894,8.95-29.205,2.989-40.875-2.843c-1.329-0.653-2.35-1.277-3.699-2.017
			c-1.192-0.643-2.468-1.712-3.732-2.011l-12.29,12.549c-1.649,2.151-3.566,3.255-3.949,4.656c1.374,0.312,2.42,0.805,3.551,1.228
			c1.29,0.477,2.612,0.883,3.811,1.276c20.604,6.94,47.901,6.585,65.332-6.266c4.566-3.395,8.28-6.676,11.48-11.458
			c8.604-12.731,7.971-27.769-1.34-39.899l-26.684-32.57c-1.223-1.371-1.724-2.365-2.538-4.158
			c-1.861-4.161-2.949-6.549-2.949-11.708c0-23.179,44.613-24.716,44.613-1.583c0,2.317-0.604,3.496-0.634,5.406
			c9.226,0,7.97,0.728,8.723-2.735c0.283-1.277,0.506-2.361,0.769-3.375c0.758-3.086,4.18-19.293,4.832-20.645
			c-6.479-3.43-16.897-4.779-25.797-4.779c-14.269,0-30.811,6.452-38.169,13.777c-1.102,1.088-1.939,1.556-3.033,2.693
			c-0.658,0.702-0.702,0.903-1.276,1.599c-4.432,5.243-7.591,9.986-8.832,17.292C334.457,486.045,334.051,488.751,334.051,490.148
			L334.051,490.148z"/>
            <path style="fill-rule:evenodd;clip-rule:evenodd;fill:#267821;" d="M747.31,398.388c-1.732,2.563-7.143,5.386-10.624,6.572
			c-2.549,0.861-7.493,2.115-10.431,2.332c-1.563,0.101-2.833,0.328-4.121,0.328c0,1.296-0.048,1.4,0.308,2.336l4.474-0.199
			c0.789-0.351,10.713-0.653,18.662-6.413c5.042-3.635,1.186-2.446,6.961-3.239c1.859-0.25,2.792-0.224,4.52-0.578
			c26.476-5.377,36.878-39.854,37.085-64.245l0.55-9.639c0.371-2.606,0.091-7.264,0.091-10.1h-0.641
			c-0.344,4.211-8.19,16.088-10.827,19.758C766.909,353.649,741.501,371.656,747.31,398.388L747.31,398.388z"/>
            <path style="fill-rule:evenodd;clip-rule:evenodd;fill:#972106;" d="M745.4,389.766L745.4,389.766L745.4,389.766z"/>
            <path style="fill-rule:evenodd;clip-rule:evenodd;fill:#6F2801;" d="M729.826,377.477c6.497,0,11.761,5.26,11.761,11.737
			c0,6.481-5.264,11.737-11.761,11.737c-6.474,0-11.735-5.256-11.735-11.737C718.091,382.737,723.351,377.477,729.826,377.477
			L729.826,377.477z"/>
            <path style="fill-rule:evenodd;clip-rule:evenodd;fill:#267821;" d="M775.58,617.536l-6.41,12.818H181v-2.398
			c30.605,2.115,50.766-2.01,63.82-10.382L775.58,617.536L775.58,617.536z"/>
        </g>
        <g>
            <path style="fill:#13017C;" d="M133.774,677.011v-25.257h18.175v4.589h-13.405v6.901h12.683v4.408h-12.683v9.358H133.774z"/>
            <path style="fill:#13017C;" d="M172.616,668.123c0,5.131-3.505,9.286-9.286,9.286s-9.25-4.155-9.25-9.286
			c0-5.095,3.541-9.286,9.214-9.286S172.616,663.028,172.616,668.123z M158.488,668.123c0,2.71,1.626,5.239,4.842,5.239
			s4.842-2.529,4.842-5.239c0-2.674-1.879-5.275-4.842-5.275C160.15,662.847,158.488,665.449,158.488,668.123z"/>
            <path style="fill:#13017C;" d="M193.355,668.123c0,5.131-3.505,9.286-9.286,9.286s-9.25-4.155-9.25-9.286
			c0-5.095,3.541-9.286,9.214-9.286S193.355,663.028,193.355,668.123z M179.227,668.123c0,2.71,1.626,5.239,4.842,5.239
			s4.842-2.529,4.842-5.239c0-2.674-1.879-5.275-4.842-5.275C180.889,662.847,179.227,665.449,179.227,668.123z"/>
            <path style="fill:#13017C;" d="M214.889,651.755v25.257h-4.119l-0.289-2.457c-1.373,2.132-3.577,2.854-5.745,2.854
			c-5.239,0-9.178-3.469-9.178-9.322c0-6.143,3.866-9.322,9.069-9.322c1.879,0,4.806,1.012,5.854,2.854v-9.864H214.889z
			 M199.966,668.087c0,3.107,2.24,5.239,5.059,5.239c2.782,0,5.167-2.023,5.167-5.239c0-3.107-2.385-5.203-5.167-5.203
			C202.207,662.883,199.966,664.871,199.966,668.087z"/>
            <path style="fill:#13017C;" d="M241.952,657.825c-0.867-1.445-3.252-2.818-5.998-2.818c-3.541,0-5.239,1.481-5.239,3.36
			c0,2.204,2.602,2.818,5.637,3.18c5.275,0.65,10.189,2.023,10.189,8.058c0,5.637-4.986,8.058-10.623,8.058
			c-5.167,0-9.142-1.59-11.021-6.215l3.975-2.06c1.12,2.782,4.047,4.011,7.118,4.011c2.999,0,5.817-1.048,5.817-3.794
			c0-2.385-2.493-3.36-5.854-3.722c-5.167-0.614-9.937-1.987-9.937-7.66c0-5.203,5.131-7.335,9.792-7.371
			c3.938,0,8.021,1.12,9.937,5.022L241.952,657.825z"/>
            <path style="fill:#13017C;" d="M265.184,659.198h4.228v17.813h-4.155l-0.217-2.602c-1.012,2.096-3.794,3.107-5.781,3.144
			c-5.275,0.036-9.178-3.216-9.178-9.467c0-6.143,4.083-9.358,9.286-9.322c2.385,0,4.661,1.12,5.673,2.891L265.184,659.198z
			 M254.489,668.087c0,3.396,2.349,5.42,5.275,5.42c6.938,0,6.938-10.804,0-10.804C256.837,662.703,254.489,664.69,254.489,668.087z
			"/>
            <path style="fill:#13017C;" d="M274.578,677.011v-13.694h-3.324v-3.866h3.324v-1.192c0-4.77,3.216-6.974,6.793-6.974
			c1.554,0,3.18,0.506,4.625,1.445l-1.626,3.288c-0.939-0.614-1.807-0.939-2.71-0.939c-1.518,0-2.674,1.012-2.674,3.18v1.192h5.239
			v3.866h-5.239v13.694H274.578z"/>
            <path style="fill:#13017C;" d="M291.451,669.676c0.289,2.204,2.204,3.794,5.312,3.794c1.626,0,3.758-0.614,4.77-1.662l2.818,2.782
			c-1.879,1.951-4.95,2.891-7.66,2.891c-6.143,0-9.792-3.794-9.792-9.503c0-5.42,3.686-9.322,9.467-9.322
			c5.962,0,9.684,3.686,8.997,11.021H291.451z M301.135,666.027c-0.289-2.312-2.096-3.469-4.625-3.469
			c-2.385,0-4.336,1.156-4.986,3.469H301.135z"/>
            <path style="fill:#13017C;" d="M314.214,654.175v5.059h4.914v3.794h-4.95v7.696c0,1.698,0.939,2.529,2.312,2.529
			c0.687,0,1.481-0.217,2.132-0.542l1.229,3.758c-1.265,0.506-2.312,0.723-3.649,0.759c-3.866,0.145-6.396-2.06-6.396-6.504v-7.696
			h-3.324v-3.794h3.324v-4.589L314.214,654.175z"/>
            <path style="fill:#13017C;" d="M340.77,659.198l-10.876,25.257h-4.842l3.324-7.732l-7.118-17.524h5.131l2.71,7.696l1.698,5.022
			l1.843-4.914l3.252-7.805H340.77z"/>
            <path style="fill:#13017C;" d="M370.723,669.64c0,1.481,0.65,2.746,2.276,2.746v4.733c-1.879,0-3.975-0.434-4.77-3.324
			c-1.662,2.71-4.553,3.541-7.227,3.541c-5.528,0-10.009-1.771-10.045-8.021c0-2.132,1.554-4.48,3.902-5.275
			c-2.276-0.723-3.396-3.144-3.396-5.131c0.036-5.384,5.131-7.588,9.647-7.588c4.408,0,9.214,1.698,9.25,7.154h-4.517
			c0-2.312-2.276-3.107-4.842-3.107c-3.722,0-4.95,2.06-4.914,3.541c0,2.565,3.18,3.288,4.878,3.288c3.938,0,7.913,0,11.852,0v3.758
			h-2.096V669.64z M355.655,669.351c0,2.674,2.638,3.722,5.275,3.722c1.698,0,5.275-0.903,5.275-3.469v-3.649
			c-1.843,0-3.649,0-5.492,0C357.209,665.955,355.655,667.834,355.655,669.351z"/>
            <path style="fill:#13017C;" d="M399.808,657.825c-0.867-1.445-3.252-2.818-5.998-2.818c-3.541,0-5.239,1.481-5.239,3.36
			c0,2.204,2.602,2.818,5.637,3.18c5.275,0.65,10.189,2.023,10.189,8.058c0,5.637-4.986,8.058-10.623,8.058
			c-5.167,0-9.142-1.59-11.021-6.215l3.975-2.06c1.12,2.782,4.047,4.011,7.118,4.011c2.999,0,5.817-1.048,5.817-3.794
			c0-2.385-2.493-3.36-5.854-3.722c-5.167-0.614-9.937-1.987-9.937-7.66c0-5.203,5.131-7.335,9.792-7.371
			c3.938,0,8.021,1.12,9.937,5.022L399.808,657.825z"/>
            <path style="fill:#13017C;" d="M414.368,654.175v5.059h4.914v3.794h-4.95v7.696c0,1.698,0.939,2.529,2.312,2.529
			c0.687,0,1.481-0.217,2.132-0.542l1.229,3.758c-1.265,0.506-2.312,0.723-3.649,0.759c-3.866,0.145-6.396-2.06-6.396-6.504v-7.696
			h-3.324v-3.794h3.324v-4.589L414.368,654.175z"/>
            <path style="fill:#13017C;" d="M436.698,659.198h4.228v17.813h-4.155l-0.217-2.602c-1.012,2.096-3.794,3.107-5.781,3.144
			c-5.275,0.036-9.178-3.216-9.178-9.467c0-6.143,4.083-9.358,9.286-9.322c2.385,0,4.661,1.12,5.673,2.891L436.698,659.198z
			 M426.002,668.087c0,3.396,2.349,5.42,5.275,5.42c6.938,0,6.938-10.804,0-10.804C426.002,668.087,426.002,668.087,426.002,668.087z
			"/>
            <path style="fill:#13017C;" d="M457.762,677.011v-9.322c0-2.71-1.481-4.77-4.3-4.77c-2.71,0-4.553,2.276-4.553,4.986v9.105h-4.372
			v-17.85h3.938l0.289,2.421c1.807-1.771,3.613-2.674,5.854-2.674c4.191,0,7.552,3.144,7.552,8.744v9.358H457.762z"/>
            <path style="fill:#13017C;" d="M484.463,651.755v25.257h-4.119l-0.289-2.457c-1.373,2.132-3.577,2.854-5.745,2.854
			c-5.239,0-9.178-3.469-9.178-9.322c0-6.143,3.866-9.322,9.069-9.322c1.879,0,4.806,1.012,5.854,2.854v-9.864H484.463z
			 M469.541,668.087c0,3.107,2.24,5.239,5.059,5.239c2.782,0,5.167-2.023,5.167-5.239c0-3.107-2.385-5.203-5.167-5.203
			C469.541,668.087,469.541,668.087,469.541,668.087z"/>
            <path style="fill:#13017C;" d="M502.42,659.198h4.228v17.813h-4.155l-0.217-2.602c-1.012,2.096-3.794,3.107-5.781,3.144
			c-5.275,0.036-9.178-3.216-9.178-9.467c0-6.143,4.083-9.358,9.286-9.322c2.385,0,4.661,1.12,5.673,2.891L502.42,659.198z
			 M491.725,668.087c0,3.396,2.349,5.42,5.275,5.42c6.938,0,6.938-10.804,0-10.804C491.725,668.087,491.725,668.087,491.725,668.087z
			"/>
            <path style="fill:#13017C;" d="M514.452,659.198l0.325,2.06c1.373-2.204,3.216-2.529,5.022-2.529c1.843,0,3.613,0.723,4.589,1.698
			l-1.987,3.83c-0.903-0.759-1.734-1.156-3.18-1.156c-2.312,0-4.444,1.229-4.444,4.517v9.395h-4.408v-17.813H514.452z"/>
            <path style="fill:#13017C;" d="M544.549,651.755v25.257h-4.119l-0.289-2.457c-1.373,2.132-3.577,2.854-5.745,2.854
			c-5.239,0-9.178-3.469-9.178-9.322c0-6.143,3.866-9.322,9.069-9.322c1.879,0,4.806,1.012,5.854,2.854v-9.864H544.549z
        </g>
    </g>
</svg>
