<?xml
version="1.0" encoding="iso-8859-1"?>
<!-- Generator: Adobe Illustrator 26.0.1, SVG Export Plug-In . SVG Version: 6.00 Build 0)  -->
<svg version="1.1" id="Layer_1" xmlns="http://www.w3.org/2000/svg" xmlns:xlink="http://www.w3.org/1999/xlink" x="0px" y="0px" viewBox="25 140.95 450 218.1" style="enable-background:new 25 140.95 450 218.1;" xml:space="preserve">


    <g>
        <g>
            <g>
                <path style="fill:#68696A;" d="M202.94,223.853c-1.295-3.397-3.953-6.43-7.188-8.614c-9.338-5.93-23.57-6.356-33.191-0.995
				c-5.248,2.677-8.695,7.975-9.771,13.423c-1.945,8.958-1.445,19.616,5.455,26.33c8.051,7.055,19.761,8.614,30.176,5.717
				c0.493-0.095,2.063-0.488,3.146-1.064l0.307-0.131c3.233-1.344,6.318-3.534,8.62-6.5
				C205.81,244.252,206.174,232.603,202.94,223.853z M185.981,243.969c-0.362,1.697-1.507,3.46-3.309,4.097
				c-2.871,1.263-6.75,0.914-9.408-0.563c-2.228-1.558-2.514-4.166-2.802-6.636c-0.218-4.867-0.569-10.022,0.794-14.475
				c1.069-2.758,4.016-3.465,6.68-3.672c2.802,0,5.525,0.426,7.256,2.684c1.077,1.62,1.008,3.741,1.221,5.648
				C186.338,235.075,186.7,239.872,185.981,243.969z"/>
                <path style="fill:#68696A;" d="M100.839,248.355c-2.37-0.144-5.029,0.063-7.325-0.218l0.068-24.784l0.144-0.207l7.112-0.069
				c0.076-4.022,0.144-8.338-0.075-12.004l-27.08-0.075l-4.46,0.075c-0.069,3.741-0.069,8.113,0,11.929
				c2.446,0.075,4.741,0,7.112,0.219v24.002l-0.068,0.988l-7.113,0.144c-0.15,3.946-0.15,7.762,0,11.647h31.683V248.355z"/>
                <path style="fill:#68696A;" d="M180.589,265.294c-3.015,4.31-6.824,8.476-10.984,11.716c-0.15,0.218-0.582,0.137-0.719-0.068
				c-1.803-1.126-3.741-2.046-5.468-3.172c2.302-2.751,4.53-5.504,6.255-8.551h-2.232c-1.79,2.622-3.659,5.374-6.031,7.7
				c-3.165-1.269-6.035-2.401-9.27-3.252l-0.357-0.269c0.501-1.426,1.432-2.765,1.72-4.179h-1.939l-1.938,3.815
				c-4.236-0.918-8.908-1.413-13.218-1.694c-0.219-0.631,0.068-1.551-0.219-2.121h-1.865c-0.15,0.851,0.213,1.49-0.218,2.197
				c-4.454,0.205-8.764,0.7-12.93,1.557l-1.945-3.754c-0.713,0-1.507-0.137-2.008,0.076l1.796,4.166l-0.213,0.207
				c-3.24,0.925-6.393,2.059-9.482,3.322l-0.288-0.144c-2.014-2.19-3.953-4.579-5.536-6.981c-0.357-1.206-1.796-0.5-2.583-0.645
				c1.72,3.109,4.022,5.861,6.318,8.69c-1.94,1.132-3.873,2.395-5.893,3.32c-4.31-3.252-8.326-7.488-11.347-11.934
				c-0.864-0.137-1.433-0.076-2.302,0c5.173,8.051,13.224,15.106,21.631,19.273c0,0,0-0.064,0.075-0.064
				c0.063,0,0.206,0.131,0.063,0.207c5.68,2.753,11.716,4.729,18.109,5.58c22.058,2.891,43.112-6.494,55.322-24.996
				C182.253,265.219,181.309,265.219,180.589,265.294z M150.633,271.65l0.212-0.144c3.096,0.706,6.037,1.695,8.77,3.034
				c-2.302,2.607-5.248,4.873-7.975,6.775c-1.651,0.988-3.309,2.057-5.036,2.895l-3.083-1.339l0.212-0.488
				C146.323,278.925,148.625,275.389,150.633,271.65z M136.476,269.528c4.098,0.076,8.195,0.5,11.999,1.414l0.074,0.212
				c-2.008,3.809-4.528,7.488-7.256,10.942c-1.225,0.143-2.37-0.345-3.59-0.419l-1.227-0.146
				C136.333,277.367,136.257,273.696,136.476,269.528z M122.615,270.799c3.734-0.706,7.613-1.27,11.634-1.27l0.075,11.943
				c-1.513,0.343-3.165,0.343-4.604,0.706c-2.946-3.472-5.386-7.213-7.469-11.098L122.615,270.799z M111.042,274.615
				c2.809-1.346,5.749-2.34,8.764-3.11l0.294,0.074c2.077,3.885,4.666,7.552,7.25,11.223c-1.001,0.569-2.227,0.912-3.228,1.483
				c-4.742-2.328-9.271-5.58-13.08-9.464V274.615z M120.313,286.688c-6.037-1.558-11.642-4.241-16.814-7.908v-0.218
				c1.726-1.051,3.453-2.182,5.317-2.965c4.097,4.036,8.332,7.068,12.936,9.958C121.388,285.98,120.813,286.407,120.313,286.688z
				 M146.967,287.6c-7.613,1.633-16.096,1.697-23.709-0.137c-0.143-0.351,0.357-0.425,0.575-0.631
				c6.681-4.31,17.097-4.31,23.64,0.343C147.686,287.6,147.11,287.463,146.967,287.6z M153.866,285.63l-3.377,1.058
				c-0.576-0.281-1.077-0.707-1.583-1.133l0.144-0.212c4.598-2.677,8.764-5.929,12.717-9.814c1.94,0.776,3.809,1.839,5.536,3.034
				C163.281,281.752,158.608,283.86,153.866,285.63z"/>
                <path style="fill:#68696A;" d="M89.849,205.631c1.726-2.402,3.666-4.729,5.818-6.987c1.864-1.764,3.59-3.459,5.605-4.735
				c1.87,1.201,3.953,2.201,5.748,3.328c-2.227,2.74-4.522,5.505-6.18,8.464c0.501,0.218,1.439,0.15,2.159,0
				c1.795-2.609,3.734-5.223,6.036-7.551c3.084,1.133,6.105,2.327,9.27,3.178l0.282,0.281l-1.795,4.092
				c0.794,0.15,1.295,0.075,2.083,0c0.645-1.195,1.144-2.534,1.864-3.741c4.172,0.925,8.558,1.414,13.012,1.551
				c0.575,0.501,0.143,1.558,0.357,2.19h1.939c0.212-0.695-0.069-1.483,0.212-2.108c4.173-0.219,8.551-0.645,12.586-1.633
				l0.351,0.075l1.94,3.666c0.65,0,1.507,0.15,2.014-0.144l-1.801-4.085l0.15-0.144c3.297-0.85,6.393-2.12,9.552-3.384
				c2.233,2.327,4.31,5.08,6.187,7.757c0.787,0,1.576,0.075,2.152-0.144c-0.864-1.545-1.945-3.096-3.09-4.448
				c-0.939-1.339-1.94-2.533-3.166-3.803v-0.363l5.03-2.89l0.726-0.282c4.378,3.315,8.256,7.337,11.346,11.785
				c0.863,0,1.583,0.294,2.302-0.063c-9.632-14.4-25.51-23.658-42.673-24.99l-0.076,0.138l-0.144-0.138
				c-1.939-0.207-4.316-0.288-6.399-0.081c-0.788-0.063-1.721,0-2.658,0.081c-17.24,1.332-33.116,10.165-43.037,25.197
				C88.267,205.631,89.129,205.918,89.849,205.631z M119.668,199.426l-0.288,0.063c-2.946-0.77-5.824-1.696-8.551-2.89l0.138-0.426
				c3.953-3.74,8.119-6.85,12.717-9.245c1.082,0.426,2.158,0.776,3.234,1.276l-0.212,0.551
				C123.971,192.151,121.82,195.816,119.668,199.426z M133.962,201.327c-2.008,0.281-3.803-0.063-5.824-0.219
				c-1.933-0.281-4.379-0.487-6.318-1.132c2.083-3.866,4.529-7.613,7.475-11.065l4.597,0.626
				C134.106,193.201,133.962,197.442,133.962,201.327z M136.189,201.402c-0.144-3.753-0.069-7.913,0-11.798
				c1.438-0.206,3.015-0.425,4.454-0.631c2.802,3.522,5.536,7.137,7.406,11.003C144.165,200.902,140.21,201.402,136.189,201.402z
				 M159.114,196.454c-2.808,1.195-5.685,2.327-8.77,2.972c-2.226-3.741-4.666-7.482-7.406-11.097
				c1.007-0.55,2.233-0.976,3.309-1.539c4.679,2.327,9.202,5.643,13.005,9.445L159.114,196.454z M149.913,184.381
				c6.037,1.558,11.71,4.235,16.884,7.907l-0.144,0.281l-4.954,2.752h-0.362c-3.804-3.803-8.257-7.119-12.787-9.739
				C148.693,185.088,149.412,184.731,149.913,184.381z M147.042,183.674v0.144c-6.255,4.51-16.383,4.935-22.989,0.77
				c-0.369-0.282-1.082-0.42-1.157-0.914C130.515,181.917,139.492,181.773,147.042,183.674z M103.21,192.432
				c4.529-3.315,9.558-5.787,14.876-7.482c0.218-0.219,0.357-0.425,0.644-0.425v0.143c0.575,0.138,1.007-0.5,1.507-0.081
				c0.432,0.362,0.939,0.644,1.295,0.995c-4.454,2.746-8.839,5.998-12.861,9.946c-1.939-0.695-3.734-1.758-5.461-2.959V192.432z"/>
                <path style="fill:#68696A;" d="M134.037,248.905c-6.756,1.839-14.087,0.438-18.972-4.653c-0.57-0.707-0.932-1.545-1.508-2.253
				l-9.696,0.07c-0.15,5.715-0.219,12.283,0,17.933l10.772-0.068l0.144-3.39c1.226,0.562,2.446,1.269,3.666,1.9
				c7.474,3.11,17.096,3.817,24.496,0c5.392-2.958,8.269-8.675,7.474-14.831c-0.787-5.993-6.536-11.434-12.354-12.91l-17.39-5.017
				l-1.289-0.638c-0.575-0.488-0.938-1.12-0.794-1.902c1.364-2.327,4.529-1.62,6.9-1.558c5.029,0.707,10.203,2.402,13.149,6.994
				c3.159,0,6.824,0.063,10.271-0.075c0.144-5.787-0.063-10.865-0.144-16.727c-3.233-0.075-7.186-0.075-10.415,0.075
				c-0.144,0.838,0.138,2.033-0.219,2.884l-3.303-1.764c-7.907-3.315-18.972-3.665-26.153,1.489
				c-4.673,3.384-6.105,9.464-4.885,14.825c0.932,5.08,5.817,8.82,10.49,10.584c6.393,2.258,13.074,3.891,19.548,6.073
				c0.644,0.288,1.501,0.927,1.363,1.702C135.188,248.273,134.537,248.637,134.037,248.905z"/>
            </g>
            <g>
                <path style="fill:#2C569C;" d="M105.429,313.651c0.602,0.063,1.204,0.032,2.154-0.063c1.52-0.126,3.041-0.665,4.181-1.584
				c1.33-1.077,2.249-2.629,2.629-4.561l-0.063-0.032c-1.045,1.172-2.503,1.837-4.498,1.837c-3.579,0-6.24-2.597-6.24-6.398
				c0-3.928,3.041-7.349,7.444-7.349c4.783,0,7.349,3.77,7.349,8.774c0,4.403-1.457,7.539-3.579,9.566
				c-1.806,1.679-4.277,2.629-7.032,2.819c-0.887,0.095-1.773,0.095-2.344,0.063V313.651z M107.457,302.628
				c0.032,2.122,1.236,3.769,3.389,3.769c1.584,0,2.724-0.729,3.326-1.711c0.127-0.253,0.222-0.571,0.222-1.109
				c0.032-2.788-1.014-5.195-3.548-5.195C108.882,298.383,107.457,300.126,107.457,302.628z"/>
                <path style="fill:#2C569C;" d="M135.363,306.017c0,6.62-2.597,10.77-7.507,10.77c-4.751,0-7.285-4.308-7.317-10.58
				c0-6.398,2.724-10.706,7.538-10.706C133.051,295.501,135.363,299.936,135.363,306.017z M124.467,306.207
				c-0.032,5.005,1.362,7.602,3.516,7.602c2.28,0,3.484-2.788,3.484-7.729c0-4.783-1.14-7.602-3.484-7.602
				C125.892,298.478,124.435,301.045,124.467,306.207z"/>
                <path style="fill:#2C569C;" d="M152.342,306.017c0,6.62-2.597,10.77-7.507,10.77c-4.751,0-7.285-4.308-7.317-10.58
				c0-6.398,2.724-10.706,7.539-10.706C150.03,295.501,152.342,299.936,152.342,306.017z M141.445,306.207
				c-0.032,5.005,1.362,7.602,3.516,7.602c2.28,0,3.484-2.788,3.484-7.729c0-4.783-1.14-7.602-3.484-7.602
				C142.871,298.478,141.414,301.045,141.445,306.207z"/>
                <path style="fill:#2C569C;" d="M160.894,299.366h-0.063l-3.769,1.9l-0.665-2.946l5.005-2.471h3.263v20.589h-3.769V299.366z"/>
            </g>
            <path style="fill:#68696A;" d="M134.047,332.075c-45.256,0-82.074-36.818-82.074-82.075s36.818-82.074,82.074-82.074
			s82.074,36.818,82.074,82.074S179.303,332.075,134.047,332.075z M134.047,170.398c-43.893,0-79.602,35.709-79.602,79.602
			s35.709,79.602,79.602,79.602s79.602-35.709,79.602-79.602S177.94,170.398,134.047,170.398z"/>
            <path style="fill:#2D569A;" d="M134.047,359.047C73.918,359.047,25,310.129,25,250s48.918-109.047,109.047-109.047
			S243.093,189.871,243.093,250S194.175,359.047,134.047,359.047z M134.047,143.511c-58.718,0-106.489,47.771-106.489,106.489
			s47.771,106.489,106.489,106.489S240.536,308.718,240.536,250S192.765,143.511,134.047,143.511z"/>
            <g>
                <path style="fill:#2C569C;" d="M57.592,202.794l1.69-0.524l0.537,1.739l-1.8,0.559c0.031,1.023-0.242,2.049-0.82,3.078
				c-1.277,2.275-3.179,3.206-5.704,2.794c-0.88-0.135-1.713-0.422-2.497-0.862c-1.69-0.949-2.778-2.231-3.263-3.845
				c-0.393-1.313-0.178-2.702,0.644-4.166c1.278-2.275,3.177-3.215,5.699-2.818c0.886,0.149,1.72,0.444,2.503,0.883
				C55.976,200.418,56.981,201.472,57.592,202.794z M55.757,205.269l-1.603,0.497l-0.551-1.751l1.761-0.529
				c-0.416-0.72-1.058-1.324-1.928-1.812c-1.02-0.573-1.977-0.806-2.87-0.698c-1.01,0.116-1.788,0.661-2.333,1.633
				c-0.547,0.973-0.606,1.921-0.18,2.843c0.373,0.818,1.069,1.513,2.088,2.086c1.02,0.573,1.976,0.805,2.869,0.698
				c1.01-0.116,1.788-0.661,2.333-1.633C55.598,206.149,55.736,205.704,55.757,205.269z"/>
                <path style="fill:#2C569C;" d="M57.958,190.03l7.087,5.225l-1.34,1.818l-0.876-0.646c0.371,0.921,0.331,1.796-0.118,2.625
				c-0.576,0.763-1.122,1.257-1.639,1.484c-0.873,0.382-1.82,0.196-2.839-0.556l-4.93-3.634l1.34-1.818l4.394,3.239
				c0.453,0.334,0.81,0.516,1.071,0.545c0.459,0.053,0.887-0.236,1.285-0.867c0.593-0.949,0.527-1.69-0.197-2.224l-4.576-3.374
				L57.958,190.03z"/>
                <path style="fill:#2C569C;" d="M71.294,188.287l-1.62,1.777c-0.3-0.025-0.571-0.162-0.812-0.411
				c0.026,1.226-0.279,2.186-0.914,2.882c-1.255,1.377-2.529,1.423-3.822,0.141c-1.116-1.106-1.228-2.358-0.334-3.756
				c0.546-0.646,0.96-1.301,1.244-1.966c0.166-0.391,0.049-0.754-0.349-1.088c-0.239-0.204-0.527-0.217-0.864-0.041
				c-0.255,0.135-0.498,0.337-0.731,0.608c-0.61,0.734-0.594,1.423,0.049,2.068l-1.445,1.584c-1.497-1.395-1.437-2.981,0.184-4.757
				c1.641-1.801,3.151-2.073,4.528-0.818l3.552,3.241c0.288,0.262,0.658,0.372,1.108,0.328L71.294,188.287z M66.807,187.801
				l-0.369-0.338c-0.071,0.318-0.228,0.658-0.473,1.021c-0.188,0.254-0.375,0.515-0.563,0.784c-0.193,0.308-0.279,0.602-0.259,0.884
				c0.02,0.282,0.133,0.517,0.339,0.705c0.247,0.225,0.511,0.323,0.792,0.294c0.282-0.029,0.535-0.168,0.762-0.416
				c0.102-0.112,0.189-0.223,0.261-0.334C67.885,189.503,67.722,188.636,66.807,187.801z"/>
                <path style="fill:#2C569C;" d="M64.22,178.753l1.643-1.55l8.13,8.611l-1.642,1.55L64.22,178.753z"/>
                <path style="fill:#2C569C;" d="M69.201,176.953l-1.329-1.557l1.717-1.466l1.329,1.557L69.201,176.953z M75.563,184.403
				l-5.718-6.696l1.718-1.466l5.717,6.696L75.563,184.403z"/>
                <path style="fill:#2C569C;" d="M73.005,175.258l0.891-0.68l-1.448-1.899l1.796-1.369l1.448,1.899l1.02-0.778l0.916,1.201
				l-1.02,0.778l3.005,3.94c0.309,0.405,0.566,0.529,0.772,0.371l0.712-0.542l0.944,1.238c-0.216,0.33-0.464,0.608-0.744,0.836
				c-1.117,0.933-2.118,0.962-3.007,0.086l-3.477-4.56l-0.891,0.68L73.005,175.258z"/>
                <path style="fill:#2C569C;" d="M77.495,171.558l2.118-1.362l5.06,4.356l-1.917-6.376l1.967-1.265l2.604,10.957
				c0.128,0.38,0.143,0.815,0.045,1.303c-0.115,0.563-0.837,1.272-2.167,2.127l-1.001-1.558c0.105-0.056,0.209-0.116,0.309-0.18
				c0.893-0.574,1.116-1.207,0.672-1.899c-0.094-0.146-0.205-0.268-0.333-0.366L77.495,171.558z"/>
                <path style="fill:#2C569C;" d="M100.642,168.998l-2.248,0.942l-5.651-8.024l3.703,8.84l-2.248,0.941l-4.575-10.923l3.281-1.375
				l5.553,7.538l-1.477-9.245l3.281-1.375l4.575,10.923l-2.247,0.941l-3.704-8.84L100.642,168.998z"/>
                <path style="fill:#2C569C;" d="M113.632,164.845l-2.318,0.636c-0.241-0.18-0.397-0.441-0.467-0.782
				c-0.633,1.05-1.403,1.699-2.312,1.948c-1.797,0.493-2.899-0.148-3.307-1.922c-0.354-1.531,0.222-2.649,1.724-3.354
				c0.806-0.255,1.507-0.588,2.101-0.998c0.349-0.242,0.444-0.611,0.286-1.106c-0.094-0.3-0.33-0.466-0.709-0.496
				c-0.287-0.023-0.602,0.019-0.943,0.124c-0.908,0.294-1.262,0.885-1.063,1.774l-2.068,0.567c-0.521-1.98,0.378-3.288,2.697-3.924
				c2.35-0.645,3.772-0.069,4.264,1.728l1.273,4.637c0.104,0.376,0.357,0.666,0.761,0.869L113.632,164.845z M110.098,162.038
				l-0.132-0.483c-0.229,0.23-0.544,0.435-0.944,0.611c-0.295,0.115-0.593,0.235-0.895,0.363c-0.327,0.157-0.558,0.36-0.692,0.609
				c-0.134,0.249-0.164,0.508-0.09,0.778c0.088,0.322,0.259,0.545,0.512,0.671c0.254,0.126,0.542,0.144,0.866,0.056
				c0.147-0.04,0.279-0.088,0.399-0.143C110.101,164.052,110.426,163.232,110.098,162.038z"/>
                <path style="fill:#2C569C;" d="M114.864,164.545l-1.492-8.677l2.226-0.383l0.225,1.313c0.325-1.056,0.964-1.666,1.917-1.83
				c2.227-0.383,3.513,0.429,3.858,2.435l0.999,5.811l-2.225,0.383l-0.914-5.315c-0.096-0.554-0.227-0.933-0.395-1.135
				c-0.294-0.356-0.803-0.444-1.527-0.265c-1.084,0.275-1.55,0.855-1.398,1.741l0.952,5.539L114.864,164.545z"/>
                <path style="fill:#2C569C;" d="M131.865,162.534l-2.399,0.158c-0.199-0.226-0.3-0.512-0.301-0.86
				c-0.831,0.901-1.717,1.382-2.656,1.444c-1.86,0.122-2.81-0.727-2.853-2.548c-0.039-1.571,0.749-2.55,2.363-2.939
				c0.841-0.088,1.594-0.273,2.26-0.555c0.39-0.167,0.558-0.508,0.502-1.026c-0.031-0.313-0.229-0.522-0.594-0.629
				c-0.277-0.079-0.593-0.102-0.949-0.068c-0.948,0.105-1.414,0.614-1.398,1.524l-2.14,0.14c-0.113-2.044,1.031-3.145,3.43-3.302
				c2.432-0.16,3.708,0.69,3.831,2.549l0.314,4.798c0.026,0.389,0.215,0.724,0.571,1.005L131.865,162.534z M128.968,159.075
				l-0.033-0.5c-0.271,0.179-0.62,0.316-1.048,0.409c-0.312,0.053-0.627,0.112-0.949,0.176c-0.352,0.088-0.619,0.24-0.8,0.458
				c-0.181,0.217-0.262,0.464-0.244,0.744c0.022,0.333,0.144,0.587,0.367,0.76c0.223,0.175,0.502,0.25,0.837,0.228
				c0.152-0.01,0.291-0.029,0.42-0.06C128.566,161.048,129.049,160.309,128.968,159.075z"/>
                <path style="fill:#2C569C;" d="M139.098,153.947l2.126,0.084l-0.358,9.025c-0.046,1.169-0.541,2.032-1.484,2.591
				c-0.844,0.498-2.037,0.678-3.582,0.541c-0.767-0.063-1.461-0.324-2.083-0.781c-0.727-0.527-1.049-1.153-0.966-1.875l2.386,0.095
				c-0.042,0.497,0.395,0.839,1.309,1.027c0.129,0.027,0.226,0.042,0.291,0.044c0.487,0.019,0.937-0.128,1.35-0.443
				c0.414-0.314,0.63-0.709,0.649-1.186l0.049-1.233c-0.441,0.449-0.783,0.744-1.027,0.886c-0.388,0.224-0.853,0.324-1.394,0.303
				c-0.574-0.023-1.031-0.106-1.372-0.25c-0.395-0.156-0.769-0.431-1.122-0.824c-0.768-0.854-1.122-2.039-1.062-3.554
				c0.064-1.623,0.547-2.867,1.448-3.731c0.766-0.729,1.602-1.047,2.509-0.958c0.605,0.057,1.084,0.238,1.441,0.545
				c0.094,0.08,0.373,0.421,0.837,1.025L139.098,153.947z M136.993,155.766c-0.665-0.027-1.198,0.251-1.597,0.833
				c-0.331,0.487-0.51,1.088-0.539,1.805c-0.028,0.716,0.103,1.33,0.394,1.842c0.352,0.612,0.861,0.931,1.527,0.957
				c0.666,0.026,1.198-0.251,1.597-0.834c0.331-0.487,0.511-1.088,0.539-1.805c0.029-0.716-0.103-1.33-0.395-1.842
				C138.168,156.112,137.659,155.792,136.993,155.766z"/>
                <path style="fill:#2C569C;" d="M150.69,160.454l-5.787-0.844c-0.151,0.58-0.127,1.06,0.069,1.439
				c0.308,0.592,0.777,0.934,1.41,1.026c0.342,0.05,0.688,0.013,1.033-0.112c0.406-0.149,0.667-0.368,0.786-0.657l2.218,0.324
				c-0.297,0.756-0.904,1.357-1.822,1.803c-0.871,0.42-1.725,0.569-2.561,0.448c-0.879-0.128-1.641-0.491-2.287-1.089
				c-0.647-0.598-1.027-1.331-1.141-2.202c-0.039-0.257-0.041-0.619-0.006-1.084c0.039-0.64,0.156-1.258,0.352-1.853
				c0.743-2.321,2.224-3.32,4.443-2.996c1.489,0.217,2.509,0.951,3.061,2.203c0.386,0.877,0.5,1.863,0.34,2.956
				C150.775,159.985,150.738,160.198,150.69,160.454z M145.123,158.099l3.457,0.504c0.171-1.168-0.266-1.856-1.309-2.062
				c-0.552-0.113-1.03-0.023-1.435,0.271C145.432,157.107,145.195,157.535,145.123,158.099z"/>
                <path style="fill:#2C569C;" d="M153.483,164.814l-2.173-0.612l2.386-8.475l2.173,0.612l-0.356,1.267
				c0.968-0.762,1.838-1.035,2.609-0.818c0.657,0.185,1.148,0.481,1.473,0.887c0.142,0.175,0.34,0.529,0.595,1.062
				c0.461-0.359,0.888-0.589,1.282-0.689c0.394-0.1,0.862-0.074,1.404,0.078c0.188,0.053,0.397,0.128,0.628,0.227
				c1.386,0.592,1.849,1.705,1.389,3.339l-1.652,5.869l-2.174-0.612l1.638-5.819c0.153-0.541-0.131-0.941-0.85-1.199
				c-0.443-0.158-0.859-0.133-1.253,0.076c-0.392,0.21-0.653,0.543-0.782,1.001l-1.458,5.18l-2.173-0.612l1.638-5.819
				c0.039-0.618-0.282-1.028-0.96-1.23c-0.458-0.141-0.861-0.108-1.207,0.097c-0.346,0.206-0.585,0.543-0.717,1.011L153.483,164.814
				z"/>
                <path style="fill:#2C569C;" d="M173.165,167.853l-5.379-2.296c-0.293,0.522-0.394,0.992-0.3,1.408
				c0.146,0.651,0.513,1.102,1.101,1.352c0.318,0.136,0.662,0.188,1.028,0.156c0.429-0.04,0.739-0.185,0.928-0.435l2.062,0.88
				c-0.48,0.655-1.22,1.081-2.222,1.277c-0.95,0.184-1.814,0.109-2.59-0.222c-0.817-0.349-1.462-0.895-1.933-1.637
				c-0.471-0.743-0.652-1.55-0.539-2.42c0.028-0.259,0.118-0.609,0.271-1.05c0.201-0.609,0.473-1.176,0.814-1.701
				c1.312-2.054,2.999-2.641,5.061-1.761c1.384,0.591,2.183,1.562,2.396,2.912c0.149,0.947,0.007,1.928-0.426,2.945
				C173.367,167.421,173.277,167.617,173.165,167.853z M168.386,164.153l3.213,1.37c0.463-1.085,0.217-1.861-0.737-2.328
				c-0.505-0.251-0.991-0.285-1.457-0.105C168.938,163.272,168.599,163.626,168.386,164.153z"/>
                <path style="fill:#2C569C;" d="M172.847,171.802l4.276-7.696l1.975,1.097l-0.648,1.164c0.916-0.619,1.796-0.693,2.64-0.224
				c1.975,1.097,2.468,2.536,1.479,4.315l-2.864,5.154l-1.974-1.097l2.62-4.714c0.273-0.492,0.408-0.87,0.403-1.133
				c-0.006-0.462-0.348-0.85-1.023-1.163c-1.018-0.466-1.745-0.306-2.181,0.48l-2.73,4.913L172.847,171.802z"/>
                <path style="fill:#2C569C;" d="M185.385,169.056l0.93,0.625l1.331-1.983l1.875,1.258l-1.331,1.983l1.066,0.715l-0.842,1.254
				l-1.066-0.715l-2.762,4.114c-0.283,0.422-0.317,0.706-0.103,0.85l0.743,0.499l-0.868,1.293c-0.381-0.099-0.725-0.244-1.031-0.435
				c-1.243-0.756-1.593-1.696-1.05-2.818l3.197-4.761l-0.93-0.626L185.385,169.056z"/>
                <path style="fill:#2C569C;" d="M201.101,181.935l-1.707-1.527c0.42-0.437,0.543-0.967,0.369-1.587
				c-0.152-0.514-0.468-0.993-0.947-1.436c-0.998-0.922-1.836-1.061-2.513-0.418c-0.256,0.237-0.397,0.448-0.425,0.634
				c-0.028,0.185,0.036,0.435,0.192,0.75c0.005,0.222,0.583,1.066,1.733,2.531c0.712,0.898,1.132,1.682,1.262,2.35
				c0.172,0.866-0.085,1.682-0.771,2.449c-0.405,0.452-0.891,0.801-1.46,1.048c-0.607,0.271-1.189,0.361-1.745,0.269
				c-0.944-0.147-2.049-0.764-3.313-1.852c-0.29-0.245-0.585-0.589-0.886-1.032c-0.384-0.561-0.627-1.07-0.729-1.524
				c-0.266-1.212,0.001-2.339,0.802-3.381l1.767,1.581c-0.448,0.501-0.565,1.078-0.352,1.734c0.183,0.542,0.552,1.047,1.108,1.514
				c1.182,1.001,2.114,1.121,2.793,0.363c0.368-0.412,0.44-0.915,0.215-1.508c-0.135-0.353-0.426-0.824-0.873-1.412
				c-0.91-1.192-1.433-1.907-1.569-2.145c-0.742-1.332-0.65-2.514,0.274-3.547c0.809-0.904,1.74-1.328,2.794-1.271
				c0.984,0.053,1.994,0.541,3.026,1.465c1.397,1.249,2.053,2.513,1.972,3.79c-0.05,0.77-0.32,1.429-0.81,1.978
				C201.236,181.831,201.167,181.893,201.101,181.935z"/>
                <path style="fill:#2C569C;" d="M202.739,182.778l1.681,1.874l-3.496,5.689l5.99-2.907l1.561,1.742l-10.404,4.312
				c-0.355,0.188-0.781,0.272-1.279,0.253c-0.574-0.024-1.389-0.624-2.445-1.801l1.378-1.237c0.072,0.096,0.147,0.188,0.227,0.277
				c0.708,0.79,1.369,0.91,1.982,0.361c0.129-0.116,0.232-0.244,0.308-0.386L202.739,182.778z"/>
                <path style="fill:#2C569C;" d="M204.303,193.91l1.322,1.81c-0.293,0.388-0.412,0.777-0.356,1.165
				c0.032,0.245,0.204,0.636,0.516,1.173c0.176,0.314,0.393,0.538,0.652,0.67c0.302,0.154,0.594,0.129,0.877-0.078
				c0.344-0.252,0.449-0.562,0.316-0.93l-1.02-2.758c-0.441-1.209-0.236-2.137,0.616-2.786c0.773-0.592,1.57-0.765,2.392-0.521
				c0.733,0.215,1.407,0.715,2.022,1.501c0.659,0.846,1.021,1.709,1.086,2.587c0.082,1.012-0.292,1.822-1.122,2.43l-1.294-1.771
				c0.264-0.207,0.427-0.403,0.486-0.587c0.06-0.184,0.035-0.435-0.074-0.75c-0.11-0.316-0.239-0.574-0.386-0.775
				c-0.198-0.271-0.423-0.469-0.675-0.593c-0.308-0.164-0.584-0.156-0.829,0.022c-0.236,0.173-0.288,0.432-0.156,0.778l1.215,3.176
				c0.176,0.461,0.194,0.935,0.052,1.42c-0.141,0.486-0.409,0.873-0.802,1.16c-0.516,0.377-1.083,0.583-1.701,0.619
				c-0.618,0.035-1.191-0.129-1.719-0.494c-0.528-0.365-1.036-0.899-1.524-1.603c-0.469-0.677-0.756-1.265-0.866-1.762
				C203.036,195.673,203.36,194.638,204.303,193.91z"/>
                <path style="fill:#2C569C;" d="M214.563,197.895l0.586,0.955l2.035-1.25l1.182,1.924l-2.035,1.25l0.672,1.094l-1.287,0.791
				l-0.672-1.094l-4.222,2.593c-0.434,0.267-0.582,0.51-0.447,0.731l0.469,0.763l-1.327,0.815c-0.307-0.248-0.559-0.522-0.757-0.824
				c-0.816-1.205-0.744-2.205,0.216-2.999l4.886-3.001l-0.587-0.955L214.563,197.895z"/>
                <path style="fill:#2C569C;" d="M217.025,212.514l-2.652-5.212c-0.561,0.212-0.939,0.508-1.134,0.887
				c-0.306,0.593-0.314,1.175-0.024,1.744c0.158,0.309,0.387,0.569,0.689,0.78c0.355,0.245,0.685,0.332,0.99,0.262l1.017,1.998
				c-0.788,0.195-1.63,0.046-2.524-0.447c-0.846-0.469-1.461-1.08-1.844-1.832c-0.403-0.792-0.547-1.624-0.432-2.496
				c0.114-0.873,0.495-1.607,1.139-2.202c0.187-0.18,0.482-0.391,0.882-0.631c0.544-0.338,1.116-0.599,1.716-0.782
				c2.325-0.734,3.995-0.101,5.012,1.897c0.683,1.341,0.673,2.599-0.031,3.771c-0.493,0.822-1.231,1.484-2.216,1.985
				C217.458,212.312,217.262,212.405,217.025,212.514z M215.734,206.609l1.584,3.113c1.052-0.535,1.361-1.288,0.928-2.259
				c-0.226-0.517-0.576-0.855-1.05-1.015C216.723,206.288,216.236,206.341,215.734,206.609z"/>
                <path style="fill:#2C569C;" d="M215.078,217.304l-0.757-2.128l8.295-2.951l0.757,2.128l-1.24,0.441
				c1.182,0.35,1.907,0.902,2.176,1.657c0.228,0.643,0.27,1.214,0.126,1.713c-0.061,0.217-0.235,0.584-0.522,1.1
				c0.559,0.169,0.994,0.385,1.304,0.648c0.309,0.263,0.559,0.66,0.747,1.191c0.065,0.184,0.124,0.398,0.177,0.644
				c0.317,1.474-0.323,2.494-1.922,3.063l-5.745,2.044l-0.757-2.128l5.696-2.026c0.529-0.188,0.692-0.651,0.487-1.387
				c-0.126-0.452-0.389-0.778-0.786-0.977c-0.398-0.199-0.821-0.22-1.269-0.061l-5.07,1.803l-0.756-2.127l5.695-2.026
				c0.526-0.326,0.676-0.824,0.449-1.495c-0.151-0.456-0.41-0.765-0.777-0.929c-0.369-0.164-0.781-0.164-1.24-0.001L215.078,217.304
				z"/>
            </g>
            <g>
                <path style="fill:#2C569C;" d="M104.963,340.912l2.483,0.936c-0.248,0.623-0.647,1.197-1.197,1.72
				c-0.549,0.523-1.142,0.887-1.779,1.089c-1.259,0.399-2.639,0.342-4.141-0.172c-1.376-0.467-2.397-1.288-3.061-2.465
				c-0.621-1.12-0.849-2.419-0.683-3.895c0.082-0.7,0.277-1.461,0.587-2.283c0.357-0.947,0.755-1.71,1.195-2.287
				c1.879-2.461,4.211-3.165,6.997-2.115c1.301,0.491,2.297,1.238,2.989,2.241c0.909,1.322,1.109,2.713,0.597,4.177l-2.449-0.924
				c0.154-0.58,0.116-1.155-0.113-1.724c-0.339-0.832-1.065-1.412-2.179-1.741c-0.577-0.165-1.155-0.145-1.735,0.061
				c-0.579,0.205-1.083,0.546-1.511,1.024c-0.428,0.477-0.826,1.135-1.194,1.975c-0.416,0.965-0.612,1.882-0.588,2.751
				c0.024,1.079,0.388,1.913,1.091,2.504c0.198,0.166,0.461,0.317,0.788,0.453c0.349,0.145,0.726,0.235,1.13,0.27
				c0.858,0.076,1.531-0.1,2.019-0.53C104.441,341.778,104.693,341.423,104.963,340.912z"/>
                <path style="fill:#2C569C;" d="M118.302,344.811l-6.421-1.475c-0.222,0.637-0.24,1.177-0.054,1.621
				c0.291,0.693,0.788,1.121,1.49,1.282c0.38,0.087,0.771,0.077,1.171-0.031c0.468-0.131,0.782-0.352,0.942-0.666l2.461,0.565
				c-0.402,0.822-1.138,1.441-2.21,1.858c-1.017,0.392-1.989,0.482-2.916,0.269c-0.976-0.224-1.798-0.701-2.469-1.432
				c-0.671-0.73-1.031-1.589-1.079-2.576c-0.02-0.292,0.01-0.699,0.092-1.218c0.101-0.715,0.29-1.398,0.564-2.048
				c1.046-2.539,2.801-3.525,5.262-2.959c1.653,0.379,2.731,1.297,3.236,2.752c0.354,1.02,0.392,2.138,0.113,3.35
				C118.44,344.293,118.379,344.529,118.302,344.811z M112.266,341.66l3.835,0.88c0.297-1.295-0.129-2.106-1.281-2.435
				c-0.61-0.177-1.155-0.119-1.636,0.174C112.703,340.573,112.397,341.033,112.266,341.66z"/>
                <path style="fill:#2C569C;" d="M120.35,349.279l1.231-9.843l2.525,0.316l-0.239,1.907c0.248-0.497,0.671-0.933,1.268-1.308
				c0.597-0.374,1.164-0.527,1.7-0.461c0.109,0.014,0.224,0.041,0.342,0.08l-0.324,2.597c-0.361-0.082-0.652-0.137-0.87-0.164
				c-1.267-0.158-2.071,0.393-2.415,1.653l-0.693,5.538L120.35,349.279z"/>
                <path style="fill:#2C569C;" d="M128.092,340.398l1.262,0.057l0.122-2.688l2.541,0.116l-0.122,2.687l1.444,0.066l-0.077,1.7
				l-1.444-0.066l-0.254,5.576c-0.025,0.573,0.107,0.866,0.398,0.879l1.007,0.045l-0.08,1.754c-0.425,0.127-0.84,0.189-1.247,0.183
				c-1.64-0.001-2.526-0.7-2.66-2.099l0.293-6.453l-1.261-0.058L128.092,340.398z"/>
                <path style="fill:#2C569C;" d="M135.474,339.304l-0.051-2.305l2.543-0.057l0.051,2.305L135.474,339.304z M135.721,350.337
				l-0.222-9.917l2.543-0.057l0.222,9.917L135.721,350.337z"/>
                <path style="fill:#2C569C;" d="M140.129,342.203l-0.153-1.695l1.386-0.125l-0.104-1.148c-0.148-1.64,0.58-2.534,2.184-2.678
				l1.585-0.143l0.171,1.896l-0.904,0.082c-0.369,0.033-0.534,0.275-0.493,0.725l0.093,1.039l1.531-0.138l0.152,1.695l-1.531,0.138
				l0.719,7.984l-2.533,0.229l-0.72-7.984L140.129,342.203z"/>
                <path style="fill:#2C569C;" d="M147.159,338.426l-0.361-2.278l2.513-0.398l0.361,2.277L147.159,338.426z M148.887,349.326
				l-1.554-9.797l2.513-0.398l1.554,9.797L148.887,349.326z"/>
                <path style="fill:#2C569C;" d="M162.162,342.228l-6.39,1.606c0.093,0.669,0.323,1.158,0.69,1.468
				c0.575,0.485,1.211,0.639,1.909,0.465c0.378-0.096,0.722-0.283,1.029-0.561c0.358-0.328,0.537-0.669,0.536-1.021l2.45-0.616
				c0.016,0.914-0.359,1.802-1.124,2.661c-0.727,0.811-1.552,1.333-2.475,1.565c-0.971,0.244-1.921,0.193-2.85-0.152
				c-0.929-0.345-1.64-0.946-2.132-1.804c-0.151-0.252-0.309-0.627-0.472-1.126c-0.235-0.683-0.377-1.378-0.429-2.082
				c-0.222-2.737,0.892-4.413,3.341-5.029c1.645-0.414,3.023-0.087,4.134,0.981c0.778,0.747,1.32,1.725,1.624,2.932
				C162.049,341.703,162.102,341.941,162.162,342.228z M155.352,342.165l3.816-0.959c-0.324-1.29-1.074-1.818-2.248-1.586
				c-0.624,0.118-1.084,0.418-1.378,0.899C155.248,340.999,155.185,341.547,155.352,342.165z"/>
                <path style="fill:#2C569C;" d="M169.652,329.667l4.817,12.501l-2.374,0.914l-0.375-0.973c-0.273,1.06-0.897,1.804-1.874,2.232
				c-0.82,0.355-1.559,0.463-2.215,0.324c-0.657-0.139-1.311-0.527-1.964-1.165c-0.768-0.736-1.334-1.507-1.695-2.308
				c-0.425-0.934-0.61-2.008-0.552-3.219c0.073-1.545,0.865-2.654,2.375-3.328c1.264-0.565,2.331-0.433,3.201,0.395l-1.717-4.457
				L169.652,329.667z M167.239,336.461c-0.721,0.278-1.124,0.832-1.211,1.663c-0.069,0.641,0.027,1.296,0.286,1.968
				c0.259,0.672,0.629,1.223,1.11,1.652c0.622,0.558,1.293,0.699,2.013,0.421c0.709-0.274,1.107-0.825,1.194-1.657
				c0.068-0.641-0.027-1.296-0.286-1.968s-0.629-1.223-1.109-1.652C168.613,336.331,167.948,336.188,167.239,336.461z"/>
            </g>
        </g>
        <g>
            <g>
                <path style="fill:#68696A;" d="M434.846,223.853c-1.295-3.397-3.953-6.43-7.188-8.614c-9.338-5.93-23.57-6.356-33.191-0.995
				c-5.248,2.677-8.695,7.975-9.771,13.423c-1.945,8.958-1.445,19.616,5.455,26.33c8.051,7.055,19.761,8.614,30.176,5.717
				c0.493-0.095,2.063-0.488,3.146-1.064l0.307-0.131c3.233-1.344,6.318-3.534,8.62-6.5
				C437.717,244.252,438.08,232.603,434.846,223.853z M417.888,243.969c-0.362,1.697-1.507,3.46-3.309,4.097
				c-2.871,1.263-6.75,0.914-9.408-0.563c-2.228-1.558-2.514-4.166-2.802-6.636c-0.218-4.867-0.569-10.022,0.794-14.475
				c1.069-2.758,4.016-3.465,6.68-3.672c2.802,0,5.525,0.426,7.256,2.684c1.077,1.62,1.008,3.741,1.221,5.648
				C418.244,235.075,418.606,239.872,417.888,243.969z"/>
                <path style="fill:#68696A;" d="M332.746,248.355c-2.37-0.144-5.029,0.063-7.325-0.218l0.068-24.784l0.144-0.207l7.112-0.069
				c0.076-4.022,0.144-8.338-0.075-12.004l-27.08-0.075l-4.46,0.075c-0.069,3.741-0.069,8.113,0,11.929
				c2.446,0.075,4.741,0,7.112,0.219v24.002l-0.068,0.988l-7.113,0.144c-0.15,3.946-0.15,7.762,0,11.647h31.683V248.355z"/>
                <path style="fill:#68696A;" d="M412.495,265.294c-3.015,4.31-6.824,8.476-10.984,11.716c-0.15,0.218-0.582,0.137-0.719-0.068
				c-1.803-1.126-3.741-2.046-5.468-3.172c2.302-2.751,4.53-5.504,6.255-8.551h-2.232c-1.79,2.622-3.659,5.374-6.031,7.7
				c-3.165-1.269-6.035-2.401-9.27-3.252l-0.357-0.269c0.501-1.426,1.432-2.765,1.72-4.179h-1.939l-1.938,3.815
				c-4.236-0.918-8.908-1.413-13.218-1.694c-0.219-0.631,0.068-1.551-0.219-2.121h-1.865c-0.15,0.851,0.213,1.49-0.218,2.197
				c-4.454,0.205-8.764,0.7-12.93,1.557l-1.945-3.754c-0.713,0-1.507-0.137-2.008,0.076l1.796,4.166l-0.213,0.207
				c-3.24,0.925-6.393,2.059-9.482,3.322l-0.288-0.144c-2.014-2.19-3.953-4.579-5.536-6.981c-0.357-1.206-1.796-0.5-2.583-0.645
				c1.72,3.109,4.022,5.861,6.318,8.69c-1.94,1.132-3.873,2.395-5.893,3.32c-4.31-3.252-8.326-7.488-11.347-11.934
				c-0.864-0.137-1.433-0.076-2.302,0c5.173,8.051,13.224,15.106,21.631,19.273c0,0,0-0.064,0.075-0.064
				c0.063,0,0.206,0.131,0.063,0.207c5.68,2.753,11.716,4.729,18.109,5.58c22.057,2.891,43.112-6.494,55.322-24.996
				C414.16,265.219,413.215,265.219,412.495,265.294z M382.539,271.65l0.212-0.144c3.096,0.706,6.037,1.695,8.77,3.034
				c-2.302,2.607-5.248,4.873-7.975,6.775c-1.651,0.988-3.309,2.057-5.036,2.895l-3.083-1.339l0.212-0.488
				C378.229,278.925,380.531,275.389,382.539,271.65z M368.382,269.528c4.098,0.076,8.195,0.5,11.999,1.414l0.074,0.212
				c-2.008,3.809-4.528,7.488-7.256,10.942c-1.225,0.143-2.37-0.345-3.59-0.419l-1.227-0.146
				C368.239,277.367,368.163,273.696,368.382,269.528z M354.521,270.799c3.734-0.706,7.613-1.27,11.634-1.27l0.075,11.943
				c-1.513,0.343-3.165,0.343-4.604,0.706c-2.946-3.472-5.386-7.213-7.469-11.098L354.521,270.799z M342.948,274.615
				c2.809-1.346,5.749-2.34,8.764-3.11l0.294,0.074c2.077,3.885,4.666,7.552,7.25,11.223c-1.001,0.569-2.227,0.912-3.228,1.483
				c-4.742-2.328-9.271-5.58-13.08-9.464V274.615z M352.219,286.688c-6.037-1.558-11.642-4.241-16.814-7.908v-0.218
				c1.726-1.051,3.453-2.182,5.317-2.965c4.097,4.036,8.332,7.068,12.936,9.958C353.294,285.98,352.719,286.407,352.219,286.688z
				 M378.874,287.6c-7.613,1.633-16.096,1.697-23.709-0.137c-0.143-0.351,0.357-0.425,0.575-0.631
				c6.681-4.31,17.097-4.31,23.64,0.343C379.593,287.6,379.016,287.463,378.874,287.6z M385.772,285.63l-3.377,1.058
				c-0.576-0.281-1.077-0.707-1.583-1.133l0.144-0.212c4.598-2.677,8.764-5.929,12.717-9.814c1.94,0.776,3.809,1.839,5.536,3.034
				C395.188,281.752,390.514,283.86,385.772,285.63z"/>
                <path style="fill:#68696A;" d="M321.755,205.631c1.726-2.402,3.666-4.729,5.818-6.987c1.864-1.764,3.59-3.459,5.605-4.735
				c1.87,1.201,3.953,2.201,5.748,3.328c-2.227,2.74-4.522,5.505-6.18,8.464c0.501,0.218,1.439,0.15,2.159,0
				c1.795-2.609,3.734-5.223,6.036-7.551c3.084,1.133,6.105,2.327,9.27,3.178l0.282,0.281l-1.795,4.092
				c0.794,0.15,1.295,0.075,2.083,0c0.645-1.195,1.144-2.534,1.864-3.741c4.172,0.925,8.558,1.414,13.012,1.551
				c0.575,0.501,0.143,1.558,0.357,2.19h1.939c0.212-0.695-0.069-1.483,0.212-2.108c4.173-0.219,8.551-0.645,12.586-1.633
				l0.351,0.075l1.94,3.666c0.65,0,1.507,0.15,2.014-0.144l-1.801-4.085l0.15-0.144c3.297-0.85,6.393-2.12,9.552-3.384
				c2.233,2.327,4.31,5.08,6.187,7.757c0.787,0,1.576,0.075,2.152-0.144c-0.864-1.545-1.945-3.096-3.09-4.448
				c-0.939-1.339-1.94-2.533-3.166-3.803v-0.363l5.03-2.89l0.726-0.282c4.378,3.315,8.256,7.337,11.346,11.785
				c0.863,0,1.583,0.294,2.302-0.063c-9.632-14.4-25.51-23.658-42.673-24.99l-0.076,0.138l-0.144-0.138
				c-1.939-0.207-4.316-0.288-6.399-0.081c-0.788-0.063-1.721,0-2.658,0.081c-17.24,1.332-33.116,10.165-43.037,25.197
				C320.173,205.631,321.036,205.918,321.755,205.631z M351.575,199.426l-0.288,0.063c-2.946-0.77-5.824-1.696-8.551-2.89
				l0.138-0.426c3.953-3.74,8.119-6.85,12.717-9.245c1.082,0.426,2.158,0.776,3.234,1.276l-0.212,0.551
				C355.878,192.151,353.727,195.816,351.575,199.426z M365.868,201.327c-2.008,0.281-3.803-0.063-5.824-0.219
				c-1.933-0.281-4.379-0.487-6.318-1.132c2.083-3.866,4.529-7.613,7.475-11.065l4.597,0.626
				C366.012,193.201,365.868,197.442,365.868,201.327z M368.095,201.402c-0.144-3.753-0.069-7.913,0-11.798
				c1.438-0.206,3.015-0.425,4.454-0.631c2.802,3.522,5.536,7.137,7.406,11.003C376.071,200.902,372.117,201.402,368.095,201.402z
				 M391.021,196.454c-2.808,1.195-5.685,2.327-8.77,2.972c-2.226-3.741-4.666-7.482-7.406-11.097
				c1.007-0.55,2.233-0.976,3.309-1.539c4.679,2.327,9.202,5.643,13.005,9.445L391.021,196.454z M381.819,184.381
				c6.037,1.558,11.71,4.235,16.884,7.907l-0.144,0.281l-4.954,2.752h-0.362c-3.804-3.803-8.257-7.119-12.787-9.739
				C380.599,185.088,381.318,184.731,381.819,184.381z M378.948,183.674v0.144c-6.255,4.51-16.383,4.935-22.989,0.77
				c-0.369-0.282-1.082-0.42-1.157-0.914C362.421,181.917,371.398,181.773,378.948,183.674z M335.117,192.432
				c4.529-3.315,9.558-5.787,14.876-7.482c0.218-0.219,0.357-0.425,0.644-0.425v0.143c0.575,0.138,1.008-0.5,1.507-0.081
				c0.432,0.362,0.939,0.644,1.295,0.995c-4.454,2.746-8.839,5.998-12.861,9.946c-1.939-0.695-3.734-1.758-5.461-2.959V192.432z"/>
                <path style="fill:#68696A;" d="M365.943,248.905c-6.756,1.839-14.087,0.438-18.972-4.653c-0.57-0.707-0.932-1.545-1.508-2.253
				l-9.696,0.07c-0.15,5.715-0.219,12.283,0,17.933l10.772-0.068l0.144-3.39c1.226,0.562,2.446,1.269,3.666,1.9
				c7.474,3.11,17.096,3.817,24.496,0c5.392-2.958,8.269-8.675,7.474-14.831c-0.787-5.993-6.536-11.434-12.354-12.91l-17.39-5.017
				l-1.289-0.638c-0.575-0.488-0.938-1.12-0.794-1.902c1.364-2.327,4.529-1.62,6.9-1.558c5.029,0.707,10.203,2.402,13.149,6.994
				c3.159,0,6.824,0.063,10.271-0.075c0.144-5.787-0.063-10.865-0.144-16.727c-3.233-0.075-7.186-0.075-10.415,0.075
				c-0.144,0.838,0.138,2.033-0.219,2.884l-3.303-1.764c-7.907-3.315-18.972-3.665-26.153,1.489
				c-4.673,3.384-6.105,9.464-4.885,14.825c0.932,5.08,5.817,8.82,10.49,10.584c6.393,2.258,13.074,3.891,19.548,6.073
				c0.644,0.288,1.501,0.927,1.363,1.702C367.094,248.273,366.443,248.637,365.943,248.905z"/>
            </g>
            <g>
                <path style="fill:#2C569C;" d="M329.786,316.439v-2.089l2.145-1.977c4.261-3.955,6.266-6.127,6.294-8.523
				c0-1.615-0.863-3.036-3.231-3.036c-1.588,0-2.952,0.808-3.871,1.504l-1.002-2.423c1.309-1.058,3.286-1.866,5.57-1.866
				c4.01,0,5.96,2.534,5.96,5.487c0,3.175-2.284,5.737-5.431,8.661l-1.588,1.365v0.056h7.436v2.841H329.786z"/>
                <path style="fill:#2C569C;" d="M344.713,316.439v-2.089l2.145-1.977c4.261-3.955,6.266-6.127,6.294-8.523
				c0-1.615-0.863-3.036-3.231-3.036c-1.588,0-2.952,0.808-3.871,1.504l-1.002-2.423c1.309-1.058,3.286-1.866,5.57-1.866
				c4.01,0,5.96,2.534,5.96,5.487c0,3.175-2.284,5.737-5.431,8.661l-1.588,1.365v0.056h7.436v2.841H344.713z"/>
                <path style="fill:#2C569C;" d="M372.423,307.276c0,5.82-2.283,9.469-6.601,9.469c-4.177,0-6.406-3.788-6.434-9.302
				c0-5.626,2.396-9.414,6.628-9.414C370.39,298.029,372.423,301.928,372.423,307.276z M362.842,307.443
				c-0.028,4.4,1.197,6.684,3.091,6.684c2.005,0,3.064-2.451,3.064-6.796c0-4.206-1.002-6.685-3.064-6.685
				C364.095,300.647,362.814,302.903,362.842,307.443z"/>
                <path style="fill:#2C569C;" d="M387.35,307.276c0,5.82-2.283,9.469-6.601,9.469c-4.177,0-6.406-3.788-6.434-9.302
				c0-5.626,2.396-9.414,6.628-9.414C385.317,298.029,387.35,301.928,387.35,307.276z M377.769,307.443
				c-0.028,4.4,1.197,6.684,3.091,6.684c2.005,0,3.064-2.451,3.064-6.796c0-4.206-1.002-6.685-3.064-6.685
				C379.023,300.647,377.742,302.903,377.769,307.443z"/>
                <path style="fill:#2C569C;" d="M402.276,307.276c0,5.82-2.283,9.469-6.601,9.469c-4.177,0-6.406-3.788-6.434-9.302
				c0-5.626,2.396-9.414,6.629-9.414C400.243,298.029,402.276,301.928,402.276,307.276z M392.696,307.443
				c-0.028,4.4,1.197,6.684,3.091,6.684c2.005,0,3.064-2.451,3.064-6.796c0-4.206-1.002-6.685-3.064-6.685
				C393.949,300.647,392.668,302.903,392.696,307.443z"/>
            </g>
            <path style="fill:#68696A;" d="M365.953,332.075c-45.256,0-82.075-36.818-82.075-82.075s36.819-82.074,82.075-82.074
			c45.256,0,82.075,36.818,82.075,82.074S411.209,332.075,365.953,332.075z M365.953,170.398c-43.893,0-79.602,35.709-79.602,79.602
			s35.709,79.602,79.602,79.602c43.893,0,79.603-35.709,79.603-79.602S409.846,170.398,365.953,170.398z"/>
            <path style="fill:#2D569A;" d="M365.953,359.047c-60.129,0-109.046-48.918-109.046-109.047s48.918-109.047,109.046-109.047
			C426.082,140.953,475,189.871,475,250S426.082,359.047,365.953,359.047z M365.953,143.511
			c-58.718,0-106.489,47.771-106.489,106.489s47.771,106.489,106.489,106.489c58.719,0,106.49-47.771,106.49-106.489
			S424.672,143.511,365.953,143.511z"/>
            <g>
                <path style="fill:#2C569C;" d="M267.267,232.21l1.839-8.112l1.996,0.453l-1.3,5.735l2.614,0.593l1.146-5.054l1.997,0.452
				l-1.147,5.054l4.944,1.121l-0.539,2.376L267.267,232.21z"/>
                <path style="fill:#2C569C;" d="M282.619,222.075c-0.458,1.331-1.215,2.216-2.271,2.654c-1.014,0.418-2.198,0.395-3.549-0.071
				c-1.351-0.465-2.303-1.186-2.856-2.16c-0.552-0.975-0.599-2.128-0.14-3.459c0.458-1.331,1.215-2.216,2.271-2.654
				c1.014-0.418,2.197-0.395,3.549,0.071c1.352,0.465,2.299,1.176,2.84,2.13C283.026,219.581,283.078,220.744,282.619,222.075z
				 M275.646,219.674c-0.219,0.635-0.108,1.229,0.332,1.781c0.368,0.46,0.891,0.805,1.567,1.038c0.675,0.232,1.3,0.282,1.873,0.147
				c0.687-0.165,1.139-0.564,1.358-1.199c0.218-0.635,0.108-1.228-0.332-1.781c-0.368-0.459-0.891-0.805-1.567-1.037
				c-0.677-0.233-1.301-0.282-1.874-0.147C276.318,218.639,275.864,219.039,275.646,219.674z"/>
                <path style="fill:#2C569C;" d="M286.222,213.202c-0.601,1.273-1.449,2.071-2.546,2.391c-1.054,0.305-2.228,0.153-3.521-0.457
				c-1.293-0.61-2.161-1.429-2.603-2.458c-0.443-1.029-0.364-2.18,0.236-3.454c0.601-1.273,1.449-2.07,2.547-2.391
				c1.054-0.305,2.227-0.153,3.52,0.457c1.293,0.61,2.158,1.418,2.592,2.426C286.897,210.767,286.822,211.929,286.222,213.202z
				 M279.551,210.057c-0.286,0.607-0.241,1.21,0.136,1.806c0.317,0.497,0.798,0.897,1.445,1.202c0.647,0.305,1.262,0.422,1.847,0.35
				c0.7-0.088,1.193-0.436,1.48-1.044c0.287-0.607,0.241-1.209-0.136-1.806c-0.317-0.496-0.798-0.897-1.445-1.202
				c-0.646-0.305-1.262-0.422-1.846-0.35C280.331,209.102,279.837,209.449,279.551,210.057z"/>
                <path style="fill:#2C569C;" d="M282.427,195.013l10.136,6.218l-1.181,1.925l-0.789-0.484c0.378,0.895,0.339,1.756-0.117,2.584
				c-0.388,0.693-0.85,1.167-1.388,1.423c-0.538,0.256-1.209,0.335-2.013,0.237c-0.939-0.105-1.753-0.343-2.44-0.713
				c-0.805-0.429-1.513-1.087-2.126-1.973c-0.781-1.129-0.82-2.338-0.119-3.627c0.587-1.08,1.41-1.562,2.47-1.447l-3.615-2.217
				L282.427,195.013z M284.388,201.105c-0.358,0.584-0.344,1.193,0.043,1.825c0.297,0.489,0.718,0.9,1.262,1.234
				c0.545,0.334,1.103,0.523,1.674,0.566c0.739,0.058,1.287-0.205,1.646-0.789c0.352-0.575,0.336-1.178-0.052-1.811
				c-0.297-0.489-0.718-0.901-1.263-1.235c-0.544-0.334-1.102-0.523-1.673-0.567C285.287,200.271,284.741,200.53,284.388,201.105z"/>
                <path style="fill:#2C569C;" d="M295.719,184.135l-1.503,1.729c-0.444-0.414-0.975-0.529-1.593-0.347
				c-0.512,0.16-0.986,0.482-1.422,0.968c-0.908,1.011-1.035,1.851-0.381,2.519c0.24,0.252,0.453,0.391,0.64,0.416
				c0.186,0.025,0.435-0.042,0.747-0.203c0.222-0.008,1.057-0.598,2.505-1.77c0.888-0.724,1.665-1.156,2.331-1.296
				c0.863-0.184,1.683,0.061,2.461,0.735c0.458,0.398,0.814,0.879,1.069,1.445c0.28,0.603,0.378,1.183,0.295,1.741
				c-0.134,0.946-0.735,2.06-1.804,3.34c-0.24,0.293-0.58,0.593-1.019,0.901c-0.556,0.392-1.06,0.643-1.513,0.751
				c-1.208,0.284-2.339,0.034-3.392-0.752l1.556-1.79c0.507,0.441,1.086,0.549,1.739,0.327c0.539-0.191,1.039-0.568,1.498-1.13
				c0.984-1.197,1.09-2.13,0.322-2.798c-0.417-0.362-0.92-0.427-1.51-0.193c-0.351,0.139-0.818,0.437-1.4,0.893
				c-1.178,0.927-1.886,1.46-2.122,1.599c-1.321,0.761-2.504,0.687-3.55-0.223c-0.916-0.795-1.353-1.72-1.312-2.775
				c0.039-0.985,0.512-2.001,1.422-3.048c1.229-1.414,2.482-2.09,3.762-2.026c0.771,0.038,1.433,0.299,1.989,0.782
				C295.613,184,295.676,184.069,295.719,184.135z"/>
                <path style="fill:#2C569C;" d="M308.646,183.293l-1.767,1.63c-0.297-0.05-0.555-0.209-0.775-0.479
				c-0.079,1.223-0.465,2.154-1.158,2.794c-1.369,1.263-2.643,1.201-3.82-0.188c-1.017-1.198-1.02-2.455-0.01-3.771
				c0.598-0.597,1.068-1.214,1.407-1.852c0.199-0.375,0.114-0.746-0.254-1.113c-0.22-0.224-0.507-0.262-0.857-0.115
				c-0.265,0.112-0.525,0.293-0.781,0.543c-0.671,0.678-0.714,1.366-0.128,2.064l-1.576,1.455c-1.372-1.518-1.175-3.094,0.592-4.724
				c1.79-1.652,3.318-1.795,4.581-0.426l3.261,3.534c0.264,0.287,0.623,0.427,1.075,0.422L308.646,183.293z M304.219,182.423
				l-0.339-0.368c-0.098,0.31-0.284,0.635-0.558,0.977c-0.209,0.237-0.418,0.481-0.628,0.733c-0.219,0.29-0.331,0.576-0.335,0.859
				c-0.005,0.283,0.088,0.527,0.278,0.732c0.226,0.245,0.481,0.365,0.764,0.36c0.283-0.005,0.547-0.121,0.794-0.348
				c0.111-0.103,0.207-0.207,0.288-0.311C305.147,184.211,305.058,183.333,304.219,182.423z"/>
                <path style="fill:#2C569C;" d="M304.7,177.397l-0.933-1.188l0.971-0.763l-0.632-0.805c-0.903-1.15-0.792-2.166,0.333-3.049
				l1.112-0.873l1.043,1.329l-0.633,0.498c-0.258,0.203-0.264,0.463-0.017,0.778l0.572,0.728l1.073-0.843l0.933,1.188l-1.073,0.842
				l4.394,5.597l-1.776,1.394l-4.393-5.596L304.7,177.397z"/>
                <path style="fill:#2C569C;" d="M318.005,172.077l-4.871,3.238c0.276,0.532,0.614,0.873,1.012,1.024
				c0.625,0.235,1.203,0.176,1.735-0.178c0.288-0.192,0.52-0.45,0.695-0.774c0.202-0.381,0.25-0.719,0.146-1.014l1.867-1.241
				c0.284,0.761,0.233,1.613-0.152,2.559c-0.368,0.894-0.903,1.575-1.606,2.043c-0.74,0.492-1.55,0.731-2.43,0.718
				c-0.88-0.013-1.653-0.305-2.319-0.877c-0.201-0.165-0.445-0.433-0.729-0.803c-0.399-0.502-0.724-1.04-0.976-1.614
				c-0.997-2.224-0.562-3.957,1.304-5.198c1.253-0.833,2.503-0.968,3.749-0.405c0.874,0.394,1.616,1.052,2.228,1.972
				C317.755,171.671,317.87,171.855,318.005,172.077z M312.289,174.043l2.909-1.933c-0.653-0.983-1.437-1.203-2.351-0.661
				c-0.487,0.284-0.782,0.672-0.887,1.161C311.856,173.098,311.966,173.576,312.289,174.043z"/>
                <path style="fill:#2C569C;" d="M316.325,167.392l0.979-0.546l-1.163-2.086l1.973-1.099l1.163,2.086l1.121-0.625l0.735,1.32
				l-1.121,0.625l2.413,4.328c0.248,0.445,0.485,0.604,0.711,0.478l0.781-0.436l0.758,1.361c-0.261,0.295-0.546,0.536-0.856,0.721
				c-1.237,0.765-2.234,0.65-2.987-0.343l-2.793-5.009l-0.979,0.546L316.325,167.392z"/>
                <path style="fill:#2C569C;" d="M321.295,164.371l2.29-1.048l4.393,5.028l-0.995-6.584l2.127-0.974l1.026,11.216
				c0.074,0.395,0.028,0.827-0.138,1.296c-0.194,0.541-1.009,1.141-2.447,1.799l-0.771-1.684c0.113-0.04,0.223-0.084,0.331-0.134
				c0.965-0.442,1.276-1.037,0.934-1.785c-0.072-0.158-0.164-0.294-0.276-0.41L321.295,164.371z"/>
                <path style="fill:#2C569C;" d="M344.584,165.108l-2.358,0.613l-4.455-8.745l2.411,9.276l-2.358,0.613l-2.979-11.462l3.443-0.895
				l4.427,8.249l-0.151-9.361l3.444-0.895l2.979,11.462l-2.358,0.613l-2.411-9.276L344.584,165.108z"/>
                <path style="fill:#2C569C;" d="M358.039,162.834l-2.384,0.31c-0.214-0.212-0.332-0.492-0.355-0.839
				c-0.772,0.952-1.625,1.489-2.559,1.611c-1.848,0.24-2.851-0.547-3.01-2.361c-0.138-1.565,0.586-2.593,2.172-3.083
				c0.833-0.141,1.573-0.373,2.219-0.698c0.379-0.191,0.525-0.543,0.436-1.056c-0.051-0.31-0.262-0.507-0.633-0.589
				c-0.281-0.062-0.598-0.064-0.951-0.007c-0.939,0.166-1.373,0.703-1.299,1.61l-2.126,0.276c-0.242-2.033,0.829-3.204,3.213-3.514
				c2.417-0.314,3.745,0.453,3.985,2.3l0.619,4.768c0.051,0.387,0.262,0.709,0.633,0.966L358.039,162.834z M354.929,159.566
				l-0.065-0.496c-0.258,0.197-0.598,0.354-1.019,0.475c-0.307,0.073-0.619,0.151-0.936,0.235c-0.346,0.11-0.603,0.279-0.77,0.507
				c-0.167,0.228-0.232,0.481-0.196,0.758c0.042,0.331,0.181,0.576,0.415,0.736c0.233,0.159,0.517,0.217,0.85,0.174
				c0.15-0.02,0.288-0.048,0.415-0.086C354.652,161.561,355.088,160.793,354.929,159.566z"/>
                <path style="fill:#2C569C;" d="M359.294,162.742l-0.215-8.802l2.257-0.055l0.032,1.331c0.475-0.997,1.197-1.508,2.163-1.531
				c2.258-0.055,3.413,0.935,3.462,2.971l0.144,5.895l-2.258,0.055l-0.131-5.391c-0.014-0.563-0.09-0.957-0.226-1.181
				c-0.24-0.395-0.731-0.556-1.473-0.484c-1.113,0.114-1.658,0.62-1.636,1.518l0.138,5.619L359.294,162.742z"/>
                <path style="fill:#2C569C;" d="M376.397,163.221L374,163.029c-0.164-0.252-0.222-0.55-0.172-0.894
				c-0.953,0.772-1.899,1.12-2.838,1.044c-1.857-0.148-2.675-1.127-2.454-2.934c0.19-1.56,1.111-2.415,2.764-2.566
				c0.844,0.035,1.616-0.039,2.316-0.222c0.41-0.108,0.626-0.423,0.645-0.942c0.015-0.314-0.151-0.55-0.497-0.708
				c-0.262-0.119-0.571-0.187-0.929-0.205c-0.954-0.033-1.488,0.403-1.604,1.307l-2.137-0.171c0.185-2.039,1.475-2.963,3.872-2.771
				c2.429,0.194,3.569,1.22,3.421,3.077l-0.384,4.793c-0.031,0.389,0.108,0.748,0.419,1.077L376.397,163.221z M374.032,159.378
				l0.04-0.499c-0.293,0.138-0.659,0.223-1.096,0.253c-0.316,0.007-0.637,0.019-0.964,0.036c-0.361,0.036-0.647,0.148-0.858,0.336
				c-0.211,0.188-0.327,0.422-0.35,0.701c-0.026,0.332,0.058,0.601,0.254,0.806c0.195,0.205,0.461,0.32,0.795,0.347
				c0.151,0.012,0.292,0.013,0.423,0.002C373.348,161.272,373.933,160.612,374.032,159.378z"/>
                <path style="fill:#2C569C;" d="M384.783,155.762l2.092,0.388l-1.649,8.881c-0.213,1.15-0.827,1.934-1.841,2.351
				c-0.907,0.371-2.114,0.378-3.623,0.021c-0.75-0.172-1.4-0.53-1.948-1.072c-0.644-0.626-0.874-1.291-0.687-1.995l2.347,0.436
				c-0.112,0.486,0.27,0.887,1.147,1.205c0.125,0.045,0.218,0.073,0.282,0.086c0.479,0.088,0.946,0.008,1.4-0.244
				c0.454-0.251,0.725-0.612,0.812-1.08l0.225-1.214c-0.501,0.381-0.882,0.624-1.143,0.729c-0.417,0.165-0.891,0.198-1.423,0.099
				c-0.564-0.105-1.005-0.252-1.322-0.444c-0.369-0.211-0.699-0.537-0.992-0.977c-0.637-0.956-0.818-2.179-0.541-3.669
				c0.297-1.597,0.953-2.759,1.968-3.484c0.863-0.611,1.736-0.807,2.621-0.588c0.59,0.143,1.039,0.391,1.348,0.746
				c0.082,0.092,0.309,0.47,0.682,1.135L384.783,155.762z M382.44,157.26c-0.655-0.122-1.223,0.077-1.701,0.595
				c-0.398,0.435-0.662,1.005-0.792,1.709c-0.131,0.705-0.09,1.332,0.126,1.879c0.261,0.656,0.718,1.045,1.373,1.167
				c0.655,0.122,1.222-0.077,1.701-0.596c0.397-0.434,0.662-1.004,0.793-1.709c0.131-0.705,0.089-1.331-0.126-1.88
				C383.552,157.771,383.095,157.382,382.44,157.26z"/>
                <path style="fill:#2C569C;" d="M395.329,163.855l-5.609-1.659c-0.231,0.553-0.277,1.031-0.137,1.434
				c0.221,0.629,0.637,1.035,1.25,1.216c0.333,0.098,0.679,0.11,1.04,0.037c0.422-0.09,0.712-0.269,0.87-0.539l2.15,0.636
				c-0.401,0.706-1.087,1.214-2.06,1.525c-0.922,0.292-1.788,0.318-2.598,0.079c-0.852-0.252-1.555-0.72-2.109-1.403
				c-0.555-0.684-0.826-1.465-0.815-2.342c-0.002-0.26,0.048-0.618,0.148-1.075c0.129-0.628,0.334-1.223,0.613-1.784
				c1.066-2.192,2.674-2.97,4.824-2.334c1.443,0.427,2.348,1.299,2.716,2.616c0.258,0.924,0.229,1.915-0.083,2.974
				C395.48,163.403,395.413,163.609,395.329,163.855z M390.154,160.732l3.349,0.991c0.335-1.131,0.001-1.874-1.001-2.228
				c-0.53-0.191-1.017-0.169-1.459,0.065C390.601,159.794,390.305,160.184,390.154,160.732z"/>
                <path style="fill:#2C569C;" d="M397.463,168.561l-2.065-0.913l3.559-8.053l2.066,0.913l-0.533,1.203
				c1.066-0.618,1.966-0.765,2.7-0.441c0.624,0.276,1.068,0.638,1.331,1.086c0.116,0.193,0.262,0.572,0.439,1.135
				c0.508-0.29,0.963-0.457,1.367-0.501c0.404-0.044,0.864,0.048,1.379,0.276c0.178,0.079,0.375,0.183,0.589,0.314
				c1.288,0.782,1.589,1.95,0.903,3.502l-2.465,5.576l-2.065-0.913l2.444-5.529c0.227-0.514,0.003-0.95-0.673-1.308
				c-0.415-0.219-0.832-0.253-1.251-0.101c-0.418,0.152-0.724,0.445-0.916,0.88l-2.176,4.921l-2.065-0.913l2.445-5.529
				c0.125-0.606-0.134-1.057-0.778-1.353c-0.433-0.204-0.837-0.228-1.209-0.074c-0.373,0.155-0.656,0.454-0.853,0.899
				L397.463,168.561z"/>
                <path style="fill:#2C569C;" d="M416.525,174.361l-4.998-3.035c-0.365,0.475-0.531,0.926-0.498,1.351
				c0.052,0.665,0.351,1.163,0.897,1.495c0.296,0.18,0.628,0.28,0.997,0.301c0.43,0.021,0.757-0.079,0.979-0.299l1.916,1.163
				c-0.568,0.58-1.362,0.897-2.382,0.949c-0.965,0.046-1.81-0.149-2.532-0.587c-0.759-0.461-1.32-1.093-1.681-1.895
				s-0.425-1.627-0.19-2.472c0.065-0.252,0.204-0.586,0.418-1.001c0.286-0.575,0.634-1.097,1.048-1.569
				c1.59-1.847,3.344-2.189,5.26-1.026c1.286,0.781,1.939,1.856,1.958,3.223c0.014,0.959-0.266,1.91-0.84,2.854
				C416.786,173.962,416.67,174.144,416.525,174.361z M412.319,170.02l2.986,1.813c0.612-1.009,0.479-1.812-0.4-2.409
				c-0.465-0.32-0.941-0.424-1.427-0.31C412.991,169.227,412.605,169.529,412.319,170.02z"/>
                <path style="fill:#2C569C;" d="M415.644,178.221l5.333-7.006l1.797,1.368l-0.807,1.06c0.994-0.482,1.877-0.429,2.645,0.156
				c1.798,1.369,2.08,2.863,0.846,4.483l-3.572,4.692l-1.797-1.368l3.267-4.292c0.341-0.448,0.528-0.802,0.562-1.063
				c0.059-0.458-0.223-0.891-0.848-1.298c-0.94-0.607-1.683-0.553-2.227,0.163l-3.405,4.472L415.644,178.221z"/>
                <path style="fill:#2C569C;" d="M428.452,177.304l0.831,0.752l1.603-1.77l1.674,1.516l-1.603,1.77l0.952,0.861l-1.014,1.12
				l-0.951-0.861l-3.326,3.672c-0.342,0.377-0.416,0.653-0.225,0.827l0.664,0.601l-1.046,1.154
				c-0.363-0.152-0.682-0.345-0.958-0.579c-1.121-0.928-1.332-1.907-0.632-2.94l3.849-4.251l-0.831-0.752L428.452,177.304z"/>
                <path style="fill:#2C569C;" d="M442.147,192.336l-1.467-1.759c0.479-0.372,0.679-0.878,0.597-1.517
				c-0.077-0.53-0.32-1.05-0.729-1.558c-0.854-1.057-1.662-1.317-2.426-0.779c-0.288,0.197-0.458,0.385-0.512,0.565
				c-0.056,0.18-0.028,0.436,0.081,0.77c-0.028,0.22,0.421,1.139,1.347,2.757c0.573,0.992,0.876,1.827,0.907,2.508
				c0.044,0.882-0.329,1.652-1.119,2.311c-0.466,0.389-0.998,0.663-1.597,0.824c-0.64,0.18-1.228,0.185-1.765,0.013
				c-0.913-0.283-1.916-1.054-3.009-2.314c-0.251-0.285-0.493-0.667-0.726-1.15c-0.299-0.612-0.465-1.149-0.5-1.614
				c-0.088-1.238,0.341-2.314,1.284-3.228l1.518,1.821c-0.516,0.43-0.716,0.985-0.601,1.664c0.103,0.563,0.395,1.116,0.876,1.66
				c1.025,1.162,1.928,1.416,2.71,0.765c0.425-0.354,0.569-0.841,0.433-1.46c-0.083-0.369-0.301-0.877-0.658-1.524
				c-0.727-1.311-1.14-2.095-1.24-2.35c-0.541-1.426-0.278-2.582,0.787-3.47c0.931-0.777,1.914-1.061,2.949-0.852
				c0.967,0.195,1.894,0.825,2.782,1.89c1.199,1.439,1.666,2.784,1.398,4.037c-0.16,0.754-0.524,1.368-1.089,1.839
				C442.297,192.253,442.219,192.304,442.147,192.336z"/>
                <path style="fill:#2C569C;" d="M443.635,193.396l1.393,2.097l-4.28,5.125l6.348-2.012l1.294,1.949l-10.916,2.765
				c-0.38,0.135-0.814,0.157-1.303,0.066c-0.564-0.106-1.284-0.818-2.159-2.135l1.542-1.025c0.057,0.105,0.118,0.208,0.185,0.307
				c0.587,0.884,1.224,1.098,1.909,0.643c0.145-0.096,0.265-0.208,0.36-0.337L443.635,193.396z"/>
                <path style="fill:#2C569C;" d="M443.588,204.654l1.052,1.98c-0.346,0.343-0.518,0.71-0.518,1.103
				c-0.004,0.247,0.11,0.659,0.342,1.235c0.13,0.336,0.313,0.588,0.551,0.756c0.276,0.196,0.57,0.212,0.879,0.048
				c0.376-0.2,0.525-0.492,0.444-0.876l-0.616-2.875c-0.265-1.259,0.07-2.149,1.006-2.671c0.85-0.475,1.663-0.533,2.443-0.175
				c0.695,0.318,1.291,0.909,1.786,1.774c0.531,0.931,0.767,1.837,0.706,2.715c-0.062,1.014-0.547,1.763-1.456,2.245l-1.029-1.937
				c0.291-0.167,0.48-0.337,0.565-0.512c0.085-0.174,0.096-0.426,0.032-0.753c-0.063-0.328-0.154-0.602-0.27-0.822
				c-0.158-0.296-0.352-0.524-0.584-0.683c-0.282-0.206-0.556-0.238-0.823-0.096c-0.258,0.137-0.347,0.386-0.265,0.748l0.75,3.317
				c0.109,0.481,0.058,0.953-0.15,1.413c-0.21,0.461-0.529,0.805-0.96,1.033c-0.564,0.3-1.155,0.423-1.771,0.371
				c-0.616-0.053-1.16-0.297-1.632-0.734c-0.47-0.437-0.897-1.038-1.279-1.804c-0.367-0.737-0.569-1.36-0.605-1.867
				C442.083,206.22,442.551,205.242,443.588,204.654z"/>
                <path style="fill:#2C569C;" d="M453.164,210.035l0.445,1.029l2.191-0.95l0.898,2.072l-2.191,0.95l0.51,1.177l-1.386,0.601
				l-0.51-1.177l-4.546,1.97c-0.468,0.203-0.649,0.423-0.546,0.66l0.356,0.822l-1.429,0.619c-0.269-0.288-0.479-0.596-0.633-0.923
				c-0.638-1.308-0.425-2.288,0.639-2.939l5.261-2.28l-0.445-1.029L453.164,210.035z"/>
                <path style="fill:#2C569C;" d="M453.539,224.858l-1.889-5.534c-0.585,0.131-1.002,0.37-1.249,0.718
				c-0.386,0.544-0.477,1.118-0.27,1.722c0.112,0.328,0.302,0.618,0.571,0.87c0.318,0.292,0.632,0.424,0.943,0.399l0.724,2.122
				c-0.807,0.081-1.619-0.185-2.435-0.799c-0.772-0.584-1.293-1.275-1.567-2.075c-0.287-0.841-0.312-1.685-0.075-2.532
				c0.237-0.848,0.717-1.52,1.44-2.019c0.211-0.152,0.532-0.318,0.961-0.5c0.588-0.258,1.191-0.435,1.81-0.532
				c2.405-0.397,3.969,0.464,4.694,2.586c0.486,1.424,0.299,2.667-0.564,3.728c-0.605,0.744-1.429,1.295-2.475,1.652
				C453.995,224.719,453.788,224.784,453.539,224.858z M453.095,218.83l1.128,3.306c1.117-0.382,1.529-1.083,1.239-2.105
				c-0.151-0.544-0.45-0.928-0.897-1.153C454.119,218.652,453.629,218.636,453.095,218.83z"/>
                <path style="fill:#2C569C;" d="M450.933,229.329l-0.446-2.214l8.631-1.738l0.446,2.214l-1.29,0.26
				c1.12,0.514,1.759,1.164,1.917,1.95c0.134,0.669,0.095,1.241-0.119,1.714c-0.091,0.207-0.316,0.544-0.674,1.014
				c0.53,0.247,0.929,0.523,1.198,0.827c0.269,0.305,0.459,0.733,0.57,1.286c0.039,0.191,0.066,0.411,0.084,0.662
				c0.104,1.504-0.675,2.423-2.339,2.758l-5.977,1.203l-0.445-2.213l5.925-1.194c0.552-0.111,0.778-0.545,0.68-1.304
				c-0.06-0.466-0.273-0.826-0.639-1.08c-0.365-0.254-0.781-0.334-1.246-0.241l-5.275,1.063l-0.446-2.214l5.926-1.193
				c0.568-0.248,0.786-0.72,0.658-1.416c-0.084-0.472-0.296-0.815-0.637-1.03s-0.749-0.274-1.226-0.178L450.933,229.329z"/>
            </g>
            <g>
                <path style="fill:#2C569C;" d="M336.87,340.912l2.483,0.936c-0.248,0.623-0.647,1.197-1.197,1.72
				c-0.549,0.523-1.142,0.887-1.779,1.089c-1.259,0.399-2.639,0.342-4.141-0.172c-1.376-0.467-2.397-1.288-3.061-2.465
				c-0.621-1.12-0.849-2.419-0.683-3.895c0.082-0.7,0.277-1.461,0.587-2.283c0.357-0.947,0.755-1.71,1.195-2.287
				c1.879-2.461,4.211-3.165,6.997-2.115c1.301,0.491,2.297,1.238,2.989,2.241c0.909,1.322,1.109,2.713,0.597,4.177l-2.449-0.924
				c0.154-0.58,0.116-1.155-0.113-1.724c-0.339-0.832-1.065-1.412-2.179-1.741c-0.577-0.165-1.155-0.145-1.735,0.061
				c-0.579,0.205-1.083,0.546-1.51,1.024c-0.428,0.477-0.826,1.135-1.194,1.975c-0.416,0.965-0.612,1.882-0.588,2.751
				c0.024,1.079,0.388,1.913,1.091,2.504c0.198,0.166,0.461,0.317,0.788,0.453c0.349,0.145,0.726,0.235,1.13,0.27
				c0.858,0.076,1.531-0.1,2.019-0.53C336.348,341.778,336.599,341.423,336.87,340.912z"/>
                <path style="fill:#2C569C;" d="M350.209,344.811l-6.421-1.475c-0.222,0.637-0.24,1.177-0.054,1.621
				c0.291,0.693,0.788,1.121,1.49,1.282c0.38,0.087,0.771,0.077,1.171-0.031c0.468-0.131,0.782-0.352,0.942-0.666l2.461,0.565
				c-0.402,0.822-1.138,1.441-2.21,1.858c-1.017,0.392-1.989,0.482-2.916,0.269c-0.976-0.224-1.798-0.701-2.469-1.432
				c-0.671-0.73-1.031-1.589-1.079-2.576c-0.02-0.292,0.01-0.699,0.092-1.218c0.101-0.715,0.29-1.398,0.564-2.048
				c1.046-2.539,2.801-3.525,5.262-2.959c1.653,0.379,2.731,1.297,3.236,2.752c0.354,1.02,0.392,2.138,0.113,3.35
				C350.347,344.293,350.286,344.529,350.209,344.811z M344.172,341.66l3.835,0.88c0.297-1.295-0.129-2.106-1.281-2.435
				c-0.61-0.177-1.155-0.119-1.636,0.174C344.61,340.573,344.304,341.033,344.172,341.66z"/>
                <path style="fill:#2C569C;" d="M352.257,349.279l1.231-9.843l2.525,0.316l-0.239,1.907c0.248-0.497,0.671-0.933,1.268-1.308
				c0.597-0.374,1.164-0.527,1.7-0.461c0.109,0.014,0.224,0.041,0.342,0.08l-0.324,2.597c-0.361-0.082-0.652-0.137-0.87-0.164
				c-1.267-0.158-2.071,0.393-2.415,1.653l-0.693,5.538L352.257,349.279z"/>
                <path style="fill:#2C569C;" d="M359.999,340.398l1.262,0.057l0.122-2.688l2.541,0.116l-0.122,2.687l1.444,0.066l-0.077,1.7
				l-1.444-0.066l-0.254,5.576c-0.026,0.573,0.107,0.866,0.398,0.879l1.007,0.045l-0.08,1.754c-0.425,0.127-0.84,0.189-1.247,0.183
				c-1.64-0.001-2.526-0.7-2.66-2.099l0.293-6.453l-1.261-0.058L359.999,340.398z"/>
                <path style="fill:#2C569C;" d="M367.381,339.304l-0.051-2.305l2.543-0.057l0.051,2.305L367.381,339.304z M367.628,350.337
				l-0.222-9.917l2.543-0.057l0.222,9.917L367.628,350.337z"/>
                <path style="fill:#2C569C;" d="M372.036,342.203l-0.153-1.695l1.386-0.125l-0.104-1.148c-0.148-1.64,0.58-2.534,2.184-2.678
				l1.585-0.143l0.171,1.896l-0.904,0.082c-0.369,0.033-0.534,0.275-0.493,0.725l0.093,1.039l1.531-0.138l0.152,1.695l-1.531,0.138
				l0.719,7.984l-2.533,0.229l-0.72-7.984L372.036,342.203z"/>
                <path style="fill:#2C569C;" d="M379.065,338.426l-0.361-2.278l2.513-0.398l0.361,2.277L379.065,338.426z M380.794,349.326
				l-1.554-9.797l2.513-0.398l1.554,9.797L380.794,349.326z"/>
                <path style="fill:#2C569C;" d="M394.068,342.228l-6.39,1.606c0.093,0.669,0.323,1.158,0.69,1.468
				c0.574,0.485,1.211,0.639,1.909,0.465c0.378-0.096,0.722-0.283,1.029-0.561c0.358-0.328,0.537-0.669,0.536-1.021l2.45-0.616
				c0.016,0.914-0.359,1.802-1.124,2.661c-0.728,0.811-1.552,1.333-2.475,1.565c-0.971,0.244-1.921,0.193-2.85-0.152
				c-0.929-0.345-1.64-0.946-2.132-1.804c-0.151-0.252-0.309-0.627-0.472-1.126c-0.235-0.683-0.377-1.378-0.429-2.082
				c-0.222-2.737,0.892-4.413,3.341-5.029c1.645-0.414,3.023-0.087,4.134,0.981c0.779,0.747,1.32,1.725,1.624,2.932
				C393.956,341.703,394.009,341.941,394.068,342.228z M387.259,342.165l3.816-0.959c-0.324-1.29-1.074-1.818-2.248-1.586
				c-0.624,0.118-1.084,0.418-1.378,0.899C387.155,340.999,387.091,341.547,387.259,342.165z"/>
                <path style="fill:#2C569C;" d="M401.558,329.667l4.817,12.501l-2.374,0.914l-0.375-0.973c-0.273,1.06-0.897,1.804-1.874,2.232
				c-0.82,0.355-1.559,0.463-2.215,0.324c-0.657-0.139-1.311-0.527-1.964-1.165c-0.768-0.736-1.334-1.507-1.695-2.308
				c-0.425-0.934-0.61-2.008-0.552-3.219c0.073-1.545,0.865-2.654,2.375-3.328c1.264-0.565,2.331-0.433,3.201,0.395l-1.717-4.457
				L401.558,329.667z M399.145,336.461c-0.721,0.278-1.124,0.832-1.211,1.663c-0.069,0.641,0.027,1.296,0.286,1.968
				c0.259,0.672,0.629,1.223,1.11,1.652c0.622,0.558,1.293,0.699,2.013,0.421c0.709-0.274,1.107-0.825,1.194-1.657
				c0.068-0.641-0.027-1.296-0.286-1.968c-0.259-0.672-0.629-1.223-1.109-1.652C400.519,336.331,399.854,336.188,399.145,336.461z"/>
            </g>
        </g>
    </g>
</svg>