<svg id="Layer_1" data-name="Layer 1" xmlns="http://www.w3.org/2000/svg" viewBox="10 0 628 195.59">
    <defs>
        <style>
            .cls-1 {
                fill: #2d5f98;
            }

            .cls-2 {
                fill: #2e6098;
            }

            .cls-3 {
                fill: #2f6099;
            }

            .cls-4 {
                fill: #2f6098;
            }

            .cls-5 {
                fill: #36669c;
            }

            .cls-6 {
                fill: #306199;
            }

            .cls-7 {
                fill: #34649b;
            }

            .cls-8 {
                fill: #4e74a5;
            }

            .cls-9 {
                fill: #426ea1;
            }

            .cls-10 {
                fill: #416da0;
            }

            .cls-11 {
                fill: #36659c;
            }
        </style>
    </defs>
    <title>World Health Organization Logo Vector</title>
    <path class="cls-1" d="M215.19,491.13a77.43,77.43,0,0,0,.5,12.73,74.13,74.13,0,0,0,4.19,17.26A76.68,76.68,0,0,0,303,570.23,74.07,74.07,0,0,0,331.46,560a76.4,76.4,0,0,0,26.73-27.38,75.06,75.06,0,0,0,10-32.81,76.77,76.77,0,0,0-56.76-79.5,92.94,92.94,0,0,0-11.08-2.13c-.67-.09-1,.11-1.07.79a3.69,3.69,0,0,1-.09.58c-.19,1.08-.19,1.1.87,1.26,2,.3,3.93.5,5.87.88a73.44,73.44,0,0,1,22.3,8.28,75.3,75.3,0,0,1,14.4,10.68c.95.9.94.92,0,1.89q-3.08,3.08-6.16,6.14c-.26.26-.44.65-.92.64,0-1.75-1.6-1.06-2.39-1.46a8.28,8.28,0,0,0-1.12-4.5,7.24,7.24,0,0,0-3.29-3,18.49,18.49,0,0,1-3.33-1.74,2.65,2.65,0,0,0-3.49-.05,1.92,1.92,0,0,0-.18.22,1.16,1.16,0,0,0,.1.28,19.65,19.65,0,0,1,3.2,11.54,2.14,2.14,0,0,0,.52,1.44,34.88,34.88,0,0,1,2.43,3.19c-.3.41-.91.22-1.1.76l.55,1a.46.46,0,0,1-.08.64,21.33,21.33,0,0,1-2.4,2.26c-.6-.46-.62-1.26-1.26-1.72a31.23,31.23,0,0,1-1.94,3.72c-.11.17-.19.4-.05.53.67.62,0,.92-.31,1.25q-3.72,3.76-7.48,7.49c-.19.19-.35.48-.76.43l-.7-.65c-.39-.35-.68-.75-1.36-.47-1.26.53-1.44.63-1.54,1.58,0,.17-.1.33-.2.35-.92.14-1.06,1.89-2.43,1.16-.21-.11-.64.15-.95.28s-.56.23-.38.63a.55.55,0,0,0,.69.37c.86-.23,1.8-.21,2.48-1a2.35,2.35,0,0,1,1.85-.67.65.65,0,0,1,.62.29c.16.27-.06.45-.22.61-.81.83-1.63,1.64-2.46,2.46a.88.88,0,0,1-.61.33,8.79,8.79,0,0,0-4.89,1.13,3.19,3.19,0,0,1,.53-.73c.2-.21.43-.4.61-.62s.56-.35.23-.68a.52.52,0,0,0-.87.1l-1,1.4a1.47,1.47,0,0,0,.06,2.24c.14.18.41.27.44.54s.09.59-.37.59c-1.32,0-2.67.16-3.84-.77a2.11,2.11,0,0,0-1.4-.53,1.38,1.38,0,0,0-.18.9c-.05,3,0,6-.2,9-.06,1-.4,2.09.08,2.85s1.78.82,2.71,1.19a28.22,28.22,0,0,1,8.72,5,13.59,13.59,0,0,1,2.81,15.72,14,14,0,0,1-6.06,5.63,44.65,44.65,0,0,1-8,3,1.15,1.15,0,0,0-1,1.31c0,1.64,0,3.29,0,4.93a1.34,1.34,0,0,0,.9,1.45,21.94,21.94,0,0,1,3.63,2.1c5.9,4.1,7.63,9.91,6.83,16.74A2.78,2.78,0,0,1,305.3,552c-1,.22-2.07.48-3.12.64-1.85.3-3.72.56-5.58.78-.62.08-.85.34-.79.93,0,.24,0,.48,0,.72,0,1,0,1,1,.91,1.82-.2,3.64-.39,5.45-.71a61,61,0,0,0,31-15.36c.81-.74.81-.76,1.58,0l7.28,7.28c.81.81.8.83-.1,1.65a74.22,74.22,0,0,1-20.74,13.6,73.8,73.8,0,0,1-75.47-9.74,42.44,42.44,0,0,1-5.15-4.6l8.31-8.31c.44-.44.73-.22,1.1.1,1.2,1,2.38,2.11,3.63,3.09a61.36,61.36,0,0,0,26.94,12.15,45.64,45.64,0,0,0,5.6.74c.72,0,1-.19.9-.88,0-.2,0-.39,0-.58-.06-1-.06-1-1.07-1.13-1.3-.15-2.6-.23-3.88-.45a58.94,58.94,0,0,1-29-13.61c-.51-.45-1-.91-1.5-1.36-.27-.24-.25-.46,0-.74,1-1.26,2.07-2.49,4-1.74,0,0,.09,0,.14,0a1.38,1.38,0,0,0,1.64-.58,2.63,2.63,0,0,1,2.87-1.14,5.93,5.93,0,0,0,.73,0c2.48,0,1.8.46,2.85-1.84a.77.77,0,0,1,.27.07c.32.21.63.44.95.66a45.74,45.74,0,0,0,15.91,7.11,46.83,46.83,0,0,0,4.84.9c.36,0,.77.19.93-.37.39-1.39,0-2.09-1.42-2.31l-.14,0a42.15,42.15,0,0,1-16.63-6,36.72,36.72,0,0,1-6.68-5.12c.39-.4.71-.76,1.05-1.09,2.15-2.16,4.29-4.32,6.46-6.46,1.45-1.43,1-1.41,2.58-.16a28,28,0,0,0,5.91,3.65c.2-.52.37-.91.51-1.31.4-1.07.41-1.1-.63-1.65a28.54,28.54,0,0,1-4.34-2.86c-.9-.71-.9-.75-.13-1.53q3.63-3.66,7.28-7.28c.78-.77.79-.77,1.65-.17a15.48,15.48,0,0,0,3.17,1.73c.26.1.57.22.74-.16a2.56,2.56,0,0,0-1-2.84,5.16,5.16,0,0,1-1.75-1.29c.57-.91,1.57-1.43,2.1-2.42a6,6,0,0,0-2.26-.73c-.9-.05-1.12,1.13-2,1.33a5.88,5.88,0,0,1-.8-1,6.91,6.91,0,0,0-3.56-3.17,17.21,17.21,0,0,1-7.84-7.08c-3.54-6.53-3.24-13.05.42-19.46.73-1.28.78-1.25-.31-2.35l-7-7c-.78-.79-.77-.82.06-1.57a44.94,44.94,0,0,1,12.92-8.16,41.93,41.93,0,0,1,9-2.58c.61-.1.94-.24,1-1,.05-1.75,0-1.83-1.74-1.51A45.92,45.92,0,0,0,261,459.45c-.47.41-.82,1.08-1.42,1.19s-.92-.76-1.48-1a.94.94,0,0,0-.21,0,5.12,5.12,0,0,0-1,1.68.64.64,0,0,0,.08.81c.72.57.26.95-.15,1.4A45.8,45.8,0,0,0,252,470a46.53,46.53,0,0,0-7,22.59c-.06,1.14-.06,1.16-1.13,1.17-3.48,0-7,0-10.44,0-.78,0-1-.28-1-1a51.31,51.31,0,0,1,.72-7.63A58.42,58.42,0,0,1,240.41,465a59.13,59.13,0,0,1,7.72-10.48c.46-.5.76-.61,1.25-.07.75.82,1.56,1.59,2.35,2.37,1.25,1.25,2.17,1.29,3.71.16a3.48,3.48,0,0,0-.93-1.09c-1.07-1.12-2.13-2.24-3.24-3.32-.5-.49-.48-.77,0-1.26a62.92,62.92,0,0,1,6.29-5.11c1.06-.73,2-1.43,2.27-2.82a3.51,3.51,0,0,1,.92-1.46,2.74,2.74,0,0,0,.67-1c-.06,0-.11-.1-.13-.09-.3.15-.61.29-.9.46a62.77,62.77,0,0,0-10.67,7.94c-.93.87-.94.88-1.81,0-2.31-2.33-4.61-4.68-6.92-7-.87-.88-1-.78.08-1.77a73.69,73.69,0,0,1,41.66-19.49c1.54-.17,1.59-.29,1.24-1.8-.15-.67-.43-.9-1.08-.78-.33.06-.68.06-1,.1a78,78,0,0,0-17.23,4.32,76.82,76.82,0,0,0-49.51,68.38Zm121.91-39.4c2.48-2.51,4.95-5,7.44-7.52.86-.88.89-.88,1.67,0a74.79,74.79,0,0,1,11.09,15.68A73.34,73.34,0,0,1,365,483a57.61,57.61,0,0,1,.78,9.37c0,1.16,0,1.18-1.21,1.18-3.39,0-6.77,0-10.15,0-1.12,0-1.14,0-1.16-1.12a60.14,60.14,0,0,0-2.58-15.81,58,58,0,0,0-2.72-7.32c-.35-.79-.71-1.58-1.07-2.38,1.24-.24,1.31-.35.78-1.32a59.14,59.14,0,0,0-4.06-6.33,8.9,8.9,0,0,0-1.87-1.81c-2-1.46-3.27-3.52-5-5.24C336.87,452,337,451.86,337.1,451.73Zm-10.82,10.81c.9-.87,1.78-1.77,2.67-2.66a1.09,1.09,0,0,1,.89-.38c.63,0,1.26,0,1.89.07a1.13,1.13,0,0,1,1.14,1.45,1,1,0,0,0,.6,1.27c1.41.69,2.51,2,4.18,2.19.39,0,.59.46.85.75,1.27,1.45,2.57,2.88,3.81,4.35a1.48,1.48,0,0,0,2,.55c1-.42,1-.35,1.47.63A57.12,57.12,0,0,1,350.38,488c.17,1.58.26,3.17.3,4.76,0,.68-.21,1-.92.94q-5.36,0-10.72,0c-.72,0-.9-.3-.9-1a39.7,39.7,0,0,0-.86-7.61,3.37,3.37,0,0,1,.23-1.65c.53-1.74,1.13-3.5.75-5.38-.25-1.22-.37-2.47-.65-3.7a19.25,19.25,0,0,0-3.92-8c-.47-.58-.31-.89.43-1.29l-2.44-1.67c-.17-.11-.34-.19-.51,0a.42.42,0,0,0-.09.53,10,10,0,0,0,.63,1,28.16,28.16,0,0,1,4.4,8.43,43.48,43.48,0,0,1,1.17,6.1c.05.31.16.7-.32.82s-.61-.18-.77-.49c-.35-.69-.69-1.38-1-2.08-.08-.17-.22-.44-.16-.53.74-1,0-1.58-.45-2.27a2.22,2.22,0,0,1-.17-1.27,1.38,1.38,0,0,0-.91-1.34c-1.39-.5-1.52-.69-1.19-2.08a1.21,1.21,0,0,1,.14-.39c.63-.72.21-.76-.42-.67l-.42.09c-.25-.46.09-.85.12-1.27,0-.26,0-.49-.3-.6s-.43,0-.57.27-.17.55-.49.68a1,1,0,0,1-.33-.24,38.33,38.33,0,0,0-3.69-4.64C326,463.17,325.9,462.91,326.28,462.54Zm1.34,26.82a4.82,4.82,0,0,1-.48-.4,6.23,6.23,0,0,1,3-1.35c.72-.08,1.47-.19,1.68-1.09a.32.32,0,0,1,.17-.22,3.69,3.69,0,0,0,2.05-3,2.07,2.07,0,0,1,.21,2.16,12.11,12.11,0,0,0-.95,3.56c.86-.27,1-1.19,1.77-1.57a29.73,29.73,0,0,1,.63,5.58c0,.36-.22.5-.54.52s-.48,0-.72,0h-8.53a4.3,4.3,0,0,1-.72,0c-.5-.09-.78-.61-.45-.93.59-.57,1.11-1.19,1.64-1.8.24-.27.62-.22,1-.23s.71,0,.8-.44S327.9,489.55,327.62,489.36Zm-15.06-8.95c.67-1.05-1.2-1.23-.76-2.41a4.13,4.13,0,0,1,1.55-2.5,10.28,10.28,0,0,1,2,2.38,1,1,0,0,1,.17.82c-.09.66-.32.83-.9.52a1.1,1.1,0,0,0-1.32-.07c-.18.62.95,1,.29,1.68C313.2,480.85,312.92,480.54,312.56,480.41Zm2.92,41.34c-.73-.14-1.42-.61-2.23-.26-.31.13-.54-.15-.75-.33a6.36,6.36,0,0,0-1.92-1.16c-.08-.52.32-.62.56-.81,1-.83,1.05-.83,2.07-.1a17.24,17.24,0,0,0,2.21,1.36,2.39,2.39,0,0,1,1.4,1.31C316.3,522.07,315.9,521.84,315.48,521.75Zm2.26-45.19c-.81-.89-1.53-1.86-2.29-2.8a.37.37,0,0,1,0-.52c.16-.18.33-.35.5-.52l7.49-7.48c.17-.17.36-.32.6-.53a37.14,37.14,0,0,1,5.28,7.06,1.66,1.66,0,0,0-.12,3,2,2,0,0,0,.24.16c3,1.2,3.37,4.11,4.22,6.67.24.72-.35,1.18-.91,1.48a1.83,1.83,0,0,0-.93,1.36c-.36,1.56-1.41,2.19-3.27,1.83a6.27,6.27,0,0,0,.84-2.37l.15-.71c.09-.39.79-.46.62-.87a4.32,4.32,0,0,0-.94-1.08c-.21-.2-.43-.39-.65-.57a1.62,1.62,0,0,0-2.66.86,3.87,3.87,0,0,1-.32,1c-.61,1.05-1.56,1-2.16-.06-.14-.25-.29-.54-.09-.81s.48,0,.7.11a.32.32,0,0,0,.49-.13c.15-.29,0-.56-.08-.83s-.41-.42-.56-.29c-.9.77-1.21-.05-1.66-.56a26.51,26.51,0,0,0-2.14-2.35c-.68-.59-.43-.91.33-1.33-.69-.26-1.19-.38-1.47.19C318.6,477.14,318.09,476.94,317.74,476.56Zm2.06,44.09c-.38-.08-.53-.34-.75-.52-.39-.31-.36-.63-.05-1a5.73,5.73,0,0,0,1-1.61c.27-.65.79-1.25.35-2-.15-.26.08-.57.21-.81a4.4,4.4,0,0,0,.06-3.52,1.13,1.13,0,0,0-.76-.94c-.59-.2-.76.18-1,.52,0,0-.17,0-.26,0-.21-.33.09-.53.22-.75a17.56,17.56,0,0,0,1.31-2.25,5.06,5.06,0,0,1,2.69-2.56c.74-.39.76-.42.63-1.46.34-.24.62.08.94.11a5.56,5.56,0,0,0,3.38-.38c.91-.51,2.05-.46,3-1-.1-.68-.75-1.19-.49-1.93.41-.12.72.19,1.07.3a.68.68,0,0,0,.78-.19c.32-.37.07-.74-.07-1.08s-.49-.21-.73-.1a3.76,3.76,0,0,1-3,.16,1.1,1.1,0,0,1-.78-.56c-.42-.92-.86-1.82-1.28-2.7.3-.41.66-.26,1-.27h7.25c1.1,0,1.13,0,1.08,1.15a39.64,39.64,0,0,1-1.83,10.08,43.77,43.77,0,0,1-9.37,16.49c-.27.3-.45.82-1,.6a1.47,1.47,0,0,1-.86-1.62c.72-1.78-.43-3.22-.89-4.87C321,518.87,320.4,519.77,319.8,520.65Zm12.14,17.08a62.15,62.15,0,0,1-10.29,7.42,10.79,10.79,0,0,1,.78-1.67c.47-.64-.4-1.25,0-1.8s1-.81,1.32-1.31a.9.9,0,0,0-.37-1.35c-.93-.63-.87-.65-.43-1.65a13,13,0,0,1,2-3,.85.85,0,0,0-.06-1.36c-.65-.61-1.11-1.45-2.23-1.37-.65,0-.78-.64-1-1.09s.17-.62.43-.82c1.81-1.41,1.17-1.61,2.89.1,2.26,2.24,4.5,4.5,6.75,6.75C332.08,536.9,332.48,537.16,331.94,537.73Zm2.7-3-.43.41a6.17,6.17,0,0,1-1.57-1.47c.87-.69.81-1.54.63-2.55a33.56,33.56,0,0,0-1.07-4.2,2.63,2.63,0,0,0-1.69-.84c-.58,0-.45.51-.58.84a18.06,18.06,0,0,0-.38,2.43c-.21.76-.39.86-.92.36-1.11-1.06-2.18-2.17-3.3-3.28a47.06,47.06,0,0,0,8.89-13.28,45.8,45.8,0,0,0,3.91-15.94c.08-1.14.07-1.15,1.27-1.16h9.86c1.43,0,1.45,0,1.38,1.43a58.43,58.43,0,0,1-16,37.25Zm2.12,3.12c-.67-.67-.68-.71,0-1.46a62.9,62.9,0,0,0,8.33-11.27,59.86,59.86,0,0,0,7.54-21.61,47.49,47.49,0,0,0,.58-6.19c0-1.2,0-1.22,1.21-1.22h10.15c1.17,0,1.19,0,1.16,1.24A69.74,69.74,0,0,1,363,514.76a74.57,74.57,0,0,1-16,29c-.64.72-1.33,1.4-2,2.09a4.44,4.44,0,0,1-1.37-1.15C341.33,542.47,339,540.17,336.76,537.88Zm-85.23-37.14c-.4.51-.49,1.32-1.3,1.44-.33,0-.67,0-1,0a.67.67,0,0,1-.8-.63,27.93,27.93,0,0,1-.5-4.74c0-.47.18-.72.68-.69a16.9,16.9,0,0,1,2.75.09,3.8,3.8,0,0,1-.41,2,1.3,1.3,0,0,0,.31,1.57C251.55,500,251.86,500.33,251.53,500.74Zm16.24,16.33c-2.29,2.35-4.58,4.71-6.88,7-.73.75-.75.74-1.42,0a3,3,0,0,0-.29-.32,3.49,3.49,0,0,1-1.4-3.9,2.39,2.39,0,0,0-.22-2,9,9,0,0,1-1.15-4.87,7.34,7.34,0,0,0-1.17-4.1,2.14,2.14,0,0,1-.32-1.8,2.45,2.45,0,0,0-.36-1.92q-.54-.94-1-1.92a1.77,1.77,0,0,0-.79-.81c-1-.57-1-.59-.69-1.58a1.47,1.47,0,0,0-.1-1.37,1.78,1.78,0,0,1,0-1.65c.24-.75.79-.73,1.38-.72.29,0,.62,0,.79-.25.75-1.19,1.91-.63,2.91-.67.69,0,.84.58.79,1.14a8,8,0,0,1-.42,2.42,2,2,0,0,0,.58,2.34c-.28-1.95.86-3.79.43-5.73.16-.23.42-.18.65-.21.7-.08,1,.15,1.08.94a28.47,28.47,0,0,0,1.44,7.07,30.93,30.93,0,0,0,6.23,10.86C268.7,516.12,268.7,516.11,267.77,517.07Zm-11.38-27.66c.14-.52.86-.77,1.41-.85a6.89,6.89,0,0,1,2.41.37c.36.08.48.44.45.81-.09,1.1-.2,2.19-.3,3.29a.5.5,0,0,1-.57.5h-1.11c-1.16.35-1.71-.5-2.3-1.36S256.15,490.3,256.39,489.41Zm10.86,10.85a3.41,3.41,0,0,0,2.12.77c.62-.07,1.14.75,1.1,1.49a.5.5,0,0,0,.22.47c.19.15.4.28.6.41a.86.86,0,0,0,.79.18,3,3,0,0,1,.91-2.4,6.19,6.19,0,0,1,1.86,2.18c-.37.56-1.09.34-1.54.77a5.61,5.61,0,0,0,.23.65c.5,1.09,1.1,1.1,1.85.17a6.71,6.71,0,0,0,1.48-3.23,34.1,34.1,0,0,0,2.28,3.26c.48.56.28.9-.16,1.33-1.56,1.52-3.08,3.06-4.62,4.6-1,1-1.9,1.92-2.87,2.87-.69.67-.73.68-1.45-.15a28.77,28.77,0,0,1-5.61-9.72,19.82,19.82,0,0,1-1.19-5.32c.45-.07.61.22.78.43a1.93,1.93,0,0,0,1.86.84A2.09,2.09,0,0,1,267.25,500.26ZM253,473.75a45.47,45.47,0,0,1,5.84-8.41l.75-.92c2.9,2.9,5.62,5.64,8.36,8.35.48.47.36.79,0,1.19a23.41,23.41,0,0,0-3.63,5.21,1.75,1.75,0,0,1-1.41,1c-1.66.31-1.65.36-2.37,1.32.82.32,1.58-.39,2.45-.15a1.8,1.8,0,0,1-1.33,1,2.86,2.86,0,0,0-1.39.72,2.6,2.6,0,0,1-2.36.78c-.51-.09-.79.18-1,.61-.69,1.32-1.4,2.64-2.1,4-.08.16-.22.42-.15.53.61,1-.1,1.6-.72,2.21a1.83,1.83,0,0,0-.47,1.47c0,.78-.26,1.13-1.1,1.09-1.2-.05-2.41,0-3.62,0-.91,0-.92,0-.89-1A43.36,43.36,0,0,1,253,473.75Zm-5.82,58.6c.39-.37.8-.89,1.48-.47.88.55,1.78,1.09,2.72,1.65a9,9,0,0,1-1.76,1.85c-.73-.67-1.47-1.29-2.11-2C247.29,533.15,246.69,532.82,247.19,532.35Zm-13.38-36.22c1.73,0,3.47,0,5.2,0s3.57,0,5.35,0c.68,0,1,.2.95.9a7.06,7.06,0,0,0,.11,1.59c.12.69.13,1.23-.78,1.32a.76.76,0,0,0-.73.77,3.5,3.5,0,0,1-1.1,2.14c-2.49,3.13-2.53,3.13-2.28,7.16.1,1.63-.14,1.39-1.28,1.77a8.47,8.47,0,0,1-2.64.66c-.8,0-1.22-.2-1.44-1a68.45,68.45,0,0,1-1.73-7.6,50.51,50.51,0,0,1-.66-6.61C232.76,496.18,232.79,496.14,233.81,496.13Zm-1.26,15.31c.07.23.11.45.23,1.05-1.49-1.33-3.08-1.11-4.59-1.28-.21.54.37.77.37,1.21-.05,0-.12.14-.18.13-.48-.07-.95-.18-1.42-.24s-.91-.07-.61-.85c.18-.49-.49-.95-1-.76-1.55.54-2.94,1.15-2.71,3.77a13.05,13.05,0,0,0,1.1,4.45,38.16,38.16,0,0,0,2.56,5.5c.25.38.37.92,1.23,1-.89-2.39-3-4.32-1.81-7.2,1.68.15,1.62,2.32,2.94,3,.35-.5,0-1.07.3-1.58.89.07.42,1.44,1.48,1.49a3.68,3.68,0,0,0,2-.1,1,1,0,0,1,.24.88,1.72,1.72,0,0,0,1.18,1.66,2.55,2.55,0,0,1,1.52,1.42c.43.7.84,1.41,1.26,2.11a1.53,1.53,0,0,0,.69.71c.8.36,1.11.24,1.45-.63.05-.13.13-.25.24-.47a3.36,3.36,0,0,1,.94,1.2,56.1,56.1,0,0,0,6.78,8.64c.84.87.84.89,0,1.7l-7.21,7.34a1.55,1.55,0,0,1-.76.55,36.82,36.82,0,0,1-3.29-3.53A73.63,73.63,0,0,1,219.32,510a65.31,65.31,0,0,1-1.56-12.62c0-1.21,0-1.23,1.13-1.23,3.43,0,6.86,0,10.29,0,.68,0,1.06.12,1.07.93A57.49,57.49,0,0,0,232.55,511.44Zm5-67.43c.82-.87.84-.86,1.65-.05l7.27,7.27c.69.69.7.73,0,1.47a62.41,62.41,0,0,0-11.09,17A59.21,59.21,0,0,0,230.47,489c-.09,1.16-.18,2.31-.22,3.47s-.06,1.08-1.18,1.09c-1.69,0-3.38,0-5.07,0s-3.48,0-5.22,0c-1,0-1.05,0-1.05-1a66.78,66.78,0,0,1,1-10.66A73.56,73.56,0,0,1,237.51,444Z" transform="translate(-181 -402.21)"/>
    <path class="cls-1" d="M428.32,472.33q2,10.37,4,20.74c.22,1.14.24,1.15,1.39,1.16,3,0,6,0,9,0,1.31,0,1.31,0,1.55-1.34q2.21-12.11,4.41-24.21c1.17-6.44,2.37-12.87,3.55-19.32.36.17.38.48.42.75q1.92,11.13,3.82,22.25Q458.22,482.7,460,493c.2,1.17.22,1.19,1.37,1.19q4.71,0,9.42,0c1.1,0,1.11,0,1.34-1.2q1.59-7.95,3.15-15.9,3.17-16,6.29-32.09c.41-2.07.8-4.15,1.23-6.4h-8.36c-.52,0-.57.41-.63.81-.2,1.19-.42,2.38-.63,3.56q-3.18,17.6-6.36,35.18a6.8,6.8,0,0,1-.71,2.75c-1.4-7.56-2.78-15-4.15-22.35q-1.75-9.46-3.49-18.93c-.12-.62-.25-1.06-1.06-1.05-3.38,0-6.76,0-10.15,0-.64,0-.92.21-1,.88-.32,2-.73,3.89-1.1,5.84q-3.19,17.28-6.4,34.58c-.05.26,0,.6-.47.6q-1.35-7.77-2.69-15.53-2.2-12.69-4.38-25.39c-.14-.81-.51-1-1.26-1-2.36,0-4.73,0-7.1,0a1.24,1.24,0,0,0-.92.23c.23,1.27.45,2.59.7,3.91Q425.48,457.55,428.32,472.33Z" transform="translate(-181 -402.21)"/>
    <path class="cls-1" d="M662.33,466.35v-25.8c0-.39,0-.78,0-1.16,0-.56-.21-.77-.76-.77H653.3c-.55,0-.79.21-.76.77,0,.38,0,.77,0,1.16v19.28c0,1.53,0,1.4-1.44,1.4H638.35c-1.43,0-1.43,0-1.44-1.43V440.23c0-1.75.12-1.6-1.52-1.61H629c-2,0-1.77-.23-1.77,1.78v47.26c0,1.74,0,3.48,0,5.22,0,1.19,0,1.21,1.18,1.21q3.41,0,6.81,0c1.87,0,1.67.2,1.68-1.73V471.05c0-1.33,0-1.34,1.35-1.35h12.9a5.61,5.61,0,0,0,.58,0c.53,0,.83.16.8.74,0,.38,0,.77,0,1.16v20.72c0,.34,0,.68,0,1,0,.57.24.76.78.76,2.75,0,5.51,0,8.26,0,.56,0,.78-.25.75-.79,0-.39,0-.77,0-1.16Z" transform="translate(-181 -402.21)"/>
    <path class="cls-1" d="M526.29,524.18q-3.56,0-7.1,0c-.6,0-.72.29-.75.8-.06,1.4-.14,2.8-.25,4.19,0,.39.16.84-.24,1.25-.52-.78-1-1.52-1.48-2.21a9.86,9.86,0,0,0-5.42-4.13c-4.82-1.25-9.1-.29-12.55,3.46a17.35,17.35,0,0,0-3.77,7.42,39.81,39.81,0,0,0-1,13.79,24.34,24.34,0,0,0,2.59,9.58,12.18,12.18,0,0,0,12.42,6.75,9.77,9.77,0,0,0,7.57-4.75c.37-.57.75-1.14,1.3-2a44.39,44.39,0,0,1-.53,9.16c-.84,4.21-3.38,6.58-7.58,7.25a17.64,17.64,0,0,1-7.44-.64,28.38,28.38,0,0,1-6-2.56c-.14.24-.22.32-.23.4-.15,2.51-.29,5-.46,7.52-.05.69.33.89.89,1.09a34.42,34.42,0,0,0,16.66,1.91c6-.87,10.2-4.08,12.22-9.92a31.33,31.33,0,0,0,1.58-10.11c0-5.94,0-11.88,0-17.83s-.19-11.78.16-17.67c0-.68.06-1.35.1-2C527,524.43,526.8,524.18,526.29,524.18ZM517.38,553a6.85,6.85,0,0,1-3.57,4.17,7.51,7.51,0,0,1-3.67.67,4.13,4.13,0,0,1-2.84-1.57,9.14,9.14,0,0,1-1.9-3.7,32.86,32.86,0,0,1-.21-16,8.5,8.5,0,0,1,1.09-2.67,5.7,5.7,0,0,1,9.26-.78,12.42,12.42,0,0,1,2.68,6.32,28.2,28.2,0,0,1,.36,5.19A24,24,0,0,1,517.38,553Z" transform="translate(-181 -402.21)"/>
    <path class="cls-1" d="M458.26,517.08a19.17,19.17,0,0,0-30.47-1.34,27.14,27.14,0,0,0-5.29,11.61,49.52,49.52,0,0,0-.48,17.42,30.39,30.39,0,0,0,4.21,12.08,19.19,19.19,0,0,0,27.23,5.72,21.49,21.49,0,0,0,7.35-9.49c2.09-5,2.69-10.23,2.78-16.12-.14-1.77-.13-4.09-.46-6.39A31.34,31.34,0,0,0,458.26,517.08Zm-6.47,33.07a16.5,16.5,0,0,1-1.58,3.41c-3.79,6.16-11.91,6-15.51-.26a19.22,19.22,0,0,1-2.25-6.09,50,50,0,0,1,.27-20.7,16.24,16.24,0,0,1,2.65-6.07,8.7,8.7,0,0,1,14.56.37,20.94,20.94,0,0,1,3,8.69,54.8,54.8,0,0,1,.58,9A39.79,39.79,0,0,1,451.79,550.15Z" transform="translate(-181 -402.21)"/>
    <path class="cls-1" d="M345.92,582.66c-4.73-.77-9.33-2.07-14-3.23a99.68,99.68,0,0,0-19.58-2.92,50.31,50.31,0,0,0-18.81,2.7,5.29,5.29,0,0,1-3.74,0,49,49,0,0,0-16.36-2.69,96.73,96.73,0,0,0-23.31,3.27c-5.65,1.44-11.28,3-17.15,3.46a27.23,27.23,0,0,1-12.23-1.63c-.27-.11-.54-.41-.89-.11a2,2,0,0,0,.79.84,34.83,34.83,0,0,0,11.19,6c7.66,2.35,15.44,2.18,23.25,1a85.23,85.23,0,0,0,12.33-3.19c4.94-1.51,9.87-3.07,15.06-3.53a8.87,8.87,0,0,1,2.62.07,90.43,90.43,0,0,0-9.55,6.35c-3.68,2.87-7.55,6.67-8.14,8.14,1.31.18,2.6.28,3.86.56,1,.21,1.69.08,2.09-.92a2,2,0,0,1,.21-.37c4.17-6.31,9.71-10.8,17.08-12.88a4,4,0,0,1,2.26,0A28.94,28.94,0,0,1,309.64,596c1,1.46,1.83,2.14,3.55,1.62a26.48,26.48,0,0,0,3.08-.59,6.54,6.54,0,0,0-1.21-1.53,65.83,65.83,0,0,0-17-12.89,23.49,23.49,0,0,1,5.76.36,74.6,74.6,0,0,1,12.32,3.2c8.23,2.72,16.61,4.38,25.33,3.93a38.06,38.06,0,0,0,14.69-3.51A28.92,28.92,0,0,0,364,581.2c-1.37.43-2.67.93-4,1.28A33.92,33.92,0,0,1,345.92,582.66Z" transform="translate(-181 -402.21)"/>
    <path class="cls-1" d="M586.57,489.47c.25-.43.52-.86.93-1.56.13,2,.06,3.77.28,5.48.08.63.32.84.9.84h7.1c.62,0,.82-.23.8-.87-.08-2.46-.14-4.93-.14-7.39q0-24.64,0-49.3c0-.44,0-.87,0-1.31s-.15-.81-.74-.81c-2.66,0-5.31,0-8,0-.54,0-.81.2-.78.76,0,.34,0,.68,0,1q0,10.44,0,20.88v1.73l-.93-1.45c-4-6.38-12.63-5.95-16.72-2.15a17.46,17.46,0,0,0-4.9,8.87,40.9,40.9,0,0,0-.8,14.54,25.06,25.06,0,0,0,2.91,9.79A11.51,11.51,0,0,0,575,494.7C579.68,495.43,584,494,586.57,489.47Zm-13.78-12.92c-.06-.86,0-1.74,0-2.18a34.2,34.2,0,0,1,.56-7.77,12.15,12.15,0,0,1,1.38-3.79,5.68,5.68,0,0,1,9.83-.29,14.29,14.29,0,0,1,2.07,6.12,34.3,34.3,0,0,1-.26,11.39,12.63,12.63,0,0,1-1.89,4.82,5.84,5.84,0,0,1-5.91,2.54,5.32,5.32,0,0,1-4.51-3.6A22.54,22.54,0,0,1,572.79,476.55Z" transform="translate(-181 -402.21)"/>
    <path class="cls-1" d="M299.36,438.28a17.62,17.62,0,0,1,5.56,1.53,12.75,12.75,0,0,1,5.27,4,10.09,10.09,0,0,1-2.92,14.63,31.8,31.8,0,0,1-7.29,3.14c-4.06,1.27-8.24,2.06-12.33,3.23a46.7,46.7,0,0,0-9.34,3.49,17.55,17.55,0,0,0-6.59,5.74,16,16,0,0,0-2.44,8.81,14.47,14.47,0,0,0,6.08,12.5,29,29,0,0,0,8.39,4.17,6.4,6.4,0,0,0,2.36.62,1.68,1.68,0,0,0,.1-.45c0-2.6-.06-5.21-.07-7.82a1.21,1.21,0,0,0-.8-1.23,13.25,13.25,0,0,1-2.46-1.52,7.41,7.41,0,0,1-2.78-3.95,7.15,7.15,0,0,1,2.79-7.81,19.52,19.52,0,0,1,6.4-3c4.11-1.26,8.34-2.06,12.47-3.22A45.35,45.35,0,0,0,314.3,466c7.13-4.61,9.24-12.28,8.05-19.25a18,18,0,0,0-7.61-11.58,29.77,29.77,0,0,0-15.32-5.58c-.77-.07-.92.2-.92.85,0,2.27,0,4.54-.12,6.81C298.36,438,298.63,438.24,299.36,438.28Z" transform="translate(-181 -402.21)"/>
    <path class="cls-1" d="M789.15,494.24c2.13,0,4.25,0,6.38,0,2.34,0,2,.22,2-2,0-7.24,0-14.49,0-21.74a14.77,14.77,0,0,1,1.13-6.22,5.84,5.84,0,0,1,6.66-3.41,4.23,4.23,0,0,1,3.22,2.63,11.37,11.37,0,0,1,.82,3.94c.18,5,.05,10.05.08,15.07,0,3.48,0,7,0,10.44,0,1.26,0,1.28,1.3,1.29q3.54,0,7.1,0c1,0,1.06,0,1.06-1.07,0-9.08,0-18.17-.06-27.25a17.63,17.63,0,0,0-1.63-7.44,9.43,9.43,0,0,0-5.27-5.1,13.08,13.08,0,0,0-6.56-.64,9.26,9.26,0,0,0-5.64,3,17.35,17.35,0,0,1-2.23,2.46V436.33c0-.39,0-.78,0-1.16a.54.54,0,0,0-.62-.61H788.8c-.5,0-.68.25-.67.72,0,.24,0,.48,0,.72v56.82a3.09,3.09,0,0,1,0,.43C788,494,788.43,494.25,789.15,494.24Z" transform="translate(-181 -402.21)"/>
    <path class="cls-1" d="M501.3,494.65c5.91-.69,10.17-3.63,12.57-9.12a28.62,28.62,0,0,0,2.06-12,29.52,29.52,0,0,0-.32-5.33c-.15-1-.34-1.9-.57-2.83-1.23-4.85-3.71-8.78-8.3-11.1a17.73,17.73,0,0,0-10.16-1.59A15,15,0,0,0,483.79,462a24.19,24.19,0,0,0-1.94,8,33.74,33.74,0,0,0,1.51,14.56,14.51,14.51,0,0,0,9.5,9.43A19.58,19.58,0,0,0,501.3,494.65Zm-8.85-12.72a22,22,0,0,1-.92-5.7,32.58,32.58,0,0,1,.9-10.77,9.28,9.28,0,0,1,2.17-4,5.91,5.91,0,0,1,9.18.79,13.24,13.24,0,0,1,1.93,5.11,17.49,17.49,0,0,1,.3,2.29c.1,1.4.15,2.8.18,3.53a33.32,33.32,0,0,1-.75,8A10.22,10.22,0,0,1,503,486a5.91,5.91,0,0,1-8.24.05A9.43,9.43,0,0,1,492.45,481.93Z" transform="translate(-181 -402.21)"/>
    <path class="cls-1" d="M772.82,526.37c-4-2.81-8.49-3.21-13.16-2.59a14.2,14.2,0,0,0-4.67,1.46A15.56,15.56,0,0,0,746.84,536a34.9,34.9,0,0,0,.27,18.31c1.34,4.61,4,8.22,8.6,10.13a19.09,19.09,0,0,0,12.21.79c5.85-1.44,9.28-5.41,11-11a31.29,31.29,0,0,0,1.22-8.51,34,34,0,0,0-1.4-10.91A15.73,15.73,0,0,0,772.82,526.37Zm-3.16,25.42a11.65,11.65,0,0,1-1.58,4,5.94,5.94,0,0,1-10.23-.07,16.28,16.28,0,0,1-2.06-7.17c-.13-1.29-.14-2.6-.2-3.79.09-3.35.2-6.58,1.43-9.65a7.41,7.41,0,0,1,2.78-3.62,6,6,0,0,1,8.26,1.88,12.46,12.46,0,0,1,1.81,5A37.66,37.66,0,0,1,769.66,551.79Z" transform="translate(-181 -402.21)"/>
    <path class="cls-1" d="M818.1,531.49a11,11,0,0,0-3.17-5.43c-2.94-2.62-6.44-2.9-10.08-2.25-2.93.51-5,2.39-6.63,4.78-.34.5-.67,1-1.19,1.79,0-.55,0-.78-.06-1-.05-1.4-.09-2.8-.15-4.2,0-.64-.21-1-1-1-2.31.06-4.63,0-6.95,0-.7,0-.94.22-.88.93a50.28,50.28,0,0,1,.26,5.06c0,3.57,0,7.15,0,10.73v23c0,1.2,0,1.21,1.18,1.22h6.81c1.41,0,1.41,0,1.43-1.42v-.58c0-6.77,0-13.53,0-20.29a42,42,0,0,1,.21-4.2,9,9,0,0,1,1.8-4.82,5.72,5.72,0,0,1,5.86-2c2.2.39,3.14,2,3.62,4a14.89,14.89,0,0,1,.38,3.45q0,5.58,0,11.16,0,6.75,0,13.48c0,1.12,0,1.14,1.11,1.15h7.25c1.09,0,1.11,0,1.11-1.14q0-13.26,0-26.52A21.41,21.41,0,0,0,818.1,531.49Z" transform="translate(-181 -402.21)"/>
    <path class="cls-1" d="M603.21,530.82a10.28,10.28,0,0,0-4.71-6,11.79,11.79,0,0,0-6-1.26,10,10,0,0,0-7.58,3.34c-.92,1-1.61,2.13-2.59,3.18-.1-1.69-.2-3.37-.28-5.06,0-.48-.13-.83-.73-.82-2.51,0-5,0-7.54,0-.52,0-.63.29-.59.76.42,4.91.39,9.83.39,14.75q0,11.74,0,23.48c0,.29,0,.58,0,.87,0,1.09,0,1.1,1.14,1.11h7c1.25,0,1.25,0,1.27-1.27V563c0-6.9,0-13.81,0-20.72a26.46,26.46,0,0,1,.3-4.18,9,9,0,0,1,1.62-4.14,5.74,5.74,0,0,1,5.95-2.12c2.28.4,3.19,2.13,3.67,4.18,0,.09,0,.19,0,.29a19.1,19.1,0,0,1,.35,4.46v22.76c0,1.74-.15,1.61,1.67,1.61h6.52c1.26,0,1.28,0,1.28-1.27q0-12.75,0-25.51A23.58,23.58,0,0,0,603.21,530.82Z" transform="translate(-181 -402.21)"/>
    <path class="cls-1" d="M735.39,494.23c.7,0,.94-.24.84-1a71.09,71.09,0,0,1-.46-10.11q0-7.68,0-15.36a25.46,25.46,0,0,0-.86-6.73,10.2,10.2,0,0,0-7.63-7.76,25.69,25.69,0,0,0-18,1.87,1.08,1.08,0,0,0-.68,1.25c.15,1.83.26,3.66.41,5.48a3.4,3.4,0,0,0,.22,1.4,3.07,3.07,0,0,0,1.29-.73,17.8,17.8,0,0,1,8.38-2.95c4.37-.34,7.65,1.82,8,6.55,0,.48.11,1,.13,1.44,0,1.1,0,1.14-1.09,1.17-2.12.05-4.24,0-6.36.27a25.94,25.94,0,0,0-7.43,1.73,11.23,11.23,0,0,0-6.6,6.52,15.07,15.07,0,0,0-.62,8.14,10.69,10.69,0,0,0,7.73,8.75,11.78,11.78,0,0,0,12-2.59,26.55,26.55,0,0,0,2.39-2.69l.32.07v1.83a14,14,0,0,0,.29,2.58.85.85,0,0,0,1,.82C730.85,494.22,733.12,494.21,735.39,494.23ZM727,476.84a21.08,21.08,0,0,1-.79,6c-1.15,3.78-3.89,5.59-7.8,5.13a5.83,5.83,0,0,1-4.92-5.77,6.51,6.51,0,0,1,4.57-6.94,20.74,20.74,0,0,1,7-1C727.53,474.24,727,473.81,727,476.84Z" transform="translate(-181 -402.21)"/>
    <path class="cls-1" d="M693.66,539.75a34.74,34.74,0,0,0-.54-6.19c-1-5.49-4.22-8.69-9.73-9.68a32.15,32.15,0,0,0-6.35-.29,24.5,24.5,0,0,0-9.75,2.48,1.28,1.28,0,0,0-.87,1.45c.17,2.07.27,4.14.41,6.21a.59.59,0,0,0,.37.61c.7-.45,1.41-1,2.16-1.37a16.36,16.36,0,0,1,8.83-2.36,6.31,6.31,0,0,1,6.3,5.17,8.42,8.42,0,0,1,.26,1.86c.07,2.7.16,2.17-2.09,2.18a38.88,38.88,0,0,0-10.74,1.25c-3.3,1-6.12,2.62-7.87,5.73a13.34,13.34,0,0,0-1.56,5.82c-.62,8.62,6,14.58,14.62,12.84a12.24,12.24,0,0,0,7.08-4.72c.22-.26.31-.71.84-.67,0,.21,0,.4.06.59a33.45,33.45,0,0,0,.39,3.73c.12.49.28.77.84.77,2.55,0,5.11,0,7.79,0-.09-2.09-.42-3.95-.42-5.83C693.69,552.8,693.66,546.27,693.66,539.75Zm-10.15,15.33a6.71,6.71,0,0,1-9.54,3,8.87,8.87,0,0,1-.9-.72c-2.52-2.34-2.56-8.37,1.33-10.46a11.53,11.53,0,0,1,3.24-1.21,27.85,27.85,0,0,1,6-.57c1.05,0,1.07,0,1.09,1,0,.72,0,1.45,0,2.17A17.72,17.72,0,0,1,683.51,555.08Z" transform="translate(-181 -402.21)"/>
    <path class="cls-1" d="M564.06,539a25.2,25.2,0,0,0-.91-7,10.47,10.47,0,0,0-7.3-7.57,26.27,26.27,0,0,0-10.77-.57,24.45,24.45,0,0,0-7.44,2.3,1.15,1.15,0,0,0-.8,1.33c.14,1.49.22,3,.3,4.48a9.16,9.16,0,0,0,.35,2.48c.86-.54,1.65-1.08,2.48-1.54a16.33,16.33,0,0,1,8.73-2.24,6.36,6.36,0,0,1,6.21,5.12,25.92,25.92,0,0,1,.37,3.16c.08.66-.2,1-.9,1-1,0-1.94,0-2.9,0a31.25,31.25,0,0,0-10.8,1.81,11.25,11.25,0,0,0-7.55,9.12,20.94,20.94,0,0,0-.22,2.74c-.22,8.14,6.38,13.65,14.65,11.94a12.33,12.33,0,0,0,7.16-4.85c.19-.24.27-.65.69-.58.22.16.15.36.16.54a21.24,21.24,0,0,0,.25,3.47c.23,1.09.23,1.11,1.27,1.12h6.53c1,0,1,0,.86-1a53.11,53.11,0,0,1-.41-5.77Q564.07,548.67,564.06,539Zm-8.78,9.31a19.7,19.7,0,0,1-1.33,6.78,6.75,6.75,0,0,1-8.74,3.44,5.72,5.72,0,0,1-3.44-4.83,6.57,6.57,0,0,1,4.55-7.48,23.93,23.93,0,0,1,8.28-1.08c.5,0,.69.23.68.71C555.27,546.63,555.28,547.45,555.28,548.27Z" transform="translate(-181 -402.21)"/>
    <path class="cls-1" d="M697.67,484.37a26,26,0,0,1-3.09,1.81,17.78,17.78,0,0,1-9.39,1.12,7.75,7.75,0,0,1-6.91-5.94,13.14,13.14,0,0,1-.52-2.7c-.17-2.77-.3-2.28,2-2.28,6.28,0,12.56,0,18.84,0,1.68,0,1.64.19,1.61-1.68,0-1.44-.08-2.89-.19-4.33a29.09,29.09,0,0,0-2-9c-3.51-8.37-11.5-9.92-17.67-8.11a14.07,14.07,0,0,0-8.71,7.59,28.61,28.61,0,0,0-1.43,23.05,15.39,15.39,0,0,0,11.39,10.35,22.71,22.71,0,0,0,8.92.27,25,25,0,0,0,6.66-1.91c1.06-.47,1.08-.51,1-1.6-.09-1.3-.17-2.6-.27-3.9C697.88,486.24,697.78,485.4,697.67,484.37ZM679.84,462a5.63,5.63,0,0,1,10,.79,17.2,17.2,0,0,1,1.26,6.49c0,.65-.28.83-.87.82-2,0-4,0-5.94,0h0c-1.78,0-3.57,0-5.36,0-1.14,0-1.2,0-1.12-1.1A13.85,13.85,0,0,1,679.84,462Z" transform="translate(-181 -402.21)"/>
    <path class="cls-1" d="M655.81,557.61H642.48a2.9,2.9,0,0,1-1.49-.15,8.08,8.08,0,0,1,1.08-1.84q7.17-11.05,14.38-22.09a2.7,2.7,0,0,0,.61-1.44c0-2.37,0-4.73,0-7.1,0-.66-.31-.84-.9-.8-.33,0-.67,0-1,0H632.7c-1.16,0-1.17,0-1.18,1.23q0,2.54,0,5.07c0,1.24,0,1.25,1.3,1.25h13a3.18,3.18,0,0,1,1.42.13,6.28,6.28,0,0,1-1,1.69q-7.32,11-14.68,22.06a3.31,3.31,0,0,0-.62,2c0,2.12,0,4.25,0,6.37,0,1.11,0,1.11,1.11,1.14H656.9c.41,0,.63-.18.63-.6,0-2.08,0-4.15,0-6.23a.62.62,0,0,0-.71-.7Z" transform="translate(-181 -402.21)"/>
    <path class="cls-1" d="M717.49,558.18a3.33,3.33,0,0,1-3.24-2.63,9.37,9.37,0,0,1-.33-2.58v-20.3c0-1.2,0-1.21,1.18-1.22h5.21c1.24,0,1.24,0,1.25-1.29q0-2.25,0-4.5c0-1.51,0-1.52-1.46-1.52-1.69,0-3.38,0-5.07,0-1.25,0-1.26,0-1.26-1.31,0-2.9,0-5.8,0-8.7a1.85,1.85,0,0,0-.23-1.34c-2.81.9-5.65,1.83-8.5,2.72-.64.21-.58.69-.58,1.16,0,2.18,0,4.35,0,6.53,0,.73-.19,1-1,1-1.44-.05-2.9,0-4.34,0-.62,0-.86.21-.85.84,0,1.88,0,3.77,0,5.65,0,.65.26.84.86.82,1.06,0,2.13,0,3.19,0,2.11,0,2.11,0,2.11,2.17,0,7,0,14,0,21a14.9,14.9,0,0,0,1,5.52,8.07,8.07,0,0,0,5,4.87,16.62,16.62,0,0,0,7.74.47,11.05,11.05,0,0,0,2.64-.75c.43-.17.78-.38.78-.91v-6.45A8.85,8.85,0,0,1,717.49,558.18Z" transform="translate(-181 -402.21)"/>
    <path class="cls-1" d="M782.35,453.11c-1.94,0-3.87,0-5.8,0-1,0-1,0-1-1.07,0-2.56,0-5.12,0-7.68a10.81,10.81,0,0,0-.09-2.42,1.11,1.11,0,0,0-.88.06l-7.31,2.35c-1.14.38-1.17.39-1.19,1.62,0,2,0,4,0,5.95,0,1.11,0,1.12-1.14,1.14-1.35,0-2.7,0-4.06,0-.77,0-1,.29-1,1,0,1.74,0,3.48,0,5.22,0,1,0,1,1.06,1.05,1.49,0,3,0,4.49,0,.55,0,.8.21.77.77,0,.34,0,.68,0,1q0,10.31,0,20.59a22.79,22.79,0,0,0,.33,4c.79,4.33,3.25,6.88,7.57,7.69a17.5,17.5,0,0,0,5.91,0,9.76,9.76,0,0,0,2.64-.77c.35-.15.72-.29.72-.79,0-2.1,0-4.21,0-6.46a8.87,8.87,0,0,1-4,.72,3.35,3.35,0,0,1-3.44-2.74,12.68,12.68,0,0,1-.34-3.3c0-6.53,0-13.06,0-19.58,0-1.1,0-1.12,1.14-1.12,1.88,0,3.77,0,5.65,0,.73,0,1-.19,1-1-.05-1.79-.05-3.58,0-5.36C783.37,453.33,783.09,453.1,782.35,453.11Z" transform="translate(-181 -402.21)"/>
    <path class="cls-1" d="M549.23,494.22h6.24c2,0,1.83.07,1.83-1.78V436.33a8.42,8.42,0,0,1,0-.87c.07-.7-.26-.92-.93-.91-2.52,0-5,0-7.54,0-1,0-1,0-1,1.09,0,.34,0,.67,0,1v56.12C547.81,494.21,547.82,494.22,549.23,494.22Z" transform="translate(-181 -402.21)"/>
    <path class="cls-1" d="M752.66,494.23c1.92,0,1.82.16,1.82-1.78v-56c0-.29,0-.58,0-.87-.05-1-.05-1.05-1.08-1.06-2.42,0-4.84,0-7.25,0-1.12,0-1.12,0-1.15,1.1,0,.34,0,.67,0,1v56.11c0,1.43,0,1.44,1.42,1.44Z" transform="translate(-181 -402.21)"/>
    <path class="cls-1" d="M286.9,422.14q.25,6.94.42,13.89c.17,6.81.28,13.61.43,20.42,0,1.78.15,3.55.24,5.56l5.92-1.52c1.43-.37,1.44-.38,1.47-1.81.11-4.34.15-8.68.28-13,.22-7,.3-14.09.45-21.14a28.4,28.4,0,0,1,.72-6.16,47.5,47.5,0,0,0,1.14-6.26,14.62,14.62,0,0,0-.36-6.17,5,5,0,0,0-3.74-3.48,8.3,8.3,0,0,0-3.44-.1,5.33,5.33,0,0,0-4.24,3.51,10,10,0,0,0-.59,2.23,25.62,25.62,0,0,0,.19,7.21C286.07,417.59,286.81,419.82,286.9,422.14Z" transform="translate(-181 -402.21)"/>
    <path class="cls-1" d="M370.65,565.11c-3.7.94-7.46,1.55-11.2,2.31a56.41,56.41,0,0,0-13.12,4c-.28.13-.53.46-1,.18.72-.79,1.43-1.57,2.13-2.37a29.8,29.8,0,0,0,7.14-14.18,53.82,53.82,0,0,1,1.45-6.64c.26-.8.59-1.59.9-2.43-.62,0-.82.45-1.12.72q-3.27,3-6.26,6.25a43.72,43.72,0,0,0-9.24,14.75c-1.27,3.54-2.54,7.09-4.76,10.2,0,.06,0,.18,0,.37,2.89-.84,5.83-.53,8.76-.46s6,.14,9,0c9.77-.3,18.19-3.63,24.75-11.09a33.63,33.63,0,0,0,5.42-8.23c-.81.68-1.58,1.41-2.43,2A29.13,29.13,0,0,1,370.65,565.11Z" transform="translate(-181 -402.21)"/>
    <path class="cls-1" d="M235.22,577.91c3,0,6-.27,9-.16a33.57,33.57,0,0,1,3.8.51,41.38,41.38,0,0,1-4.82-10.08,40.92,40.92,0,0,0-4.19-8.56,68.49,68.49,0,0,0-10.43-12c-.64-.61-1.29-1.2-1.94-1.79l-.26.16c1.48,2.69,1.82,5.67,2.35,8.59a29.23,29.23,0,0,0,6,13.17c1.05,1.31,2.2,2.55,3.34,3.87a.4.4,0,0,1-.49,0,46.8,46.8,0,0,0-10.11-3.46c-4-1-8.14-1.6-12.19-2.5a39.57,39.57,0,0,1-10.89-3.79,26,26,0,0,1-4.48-3.36,2.28,2.28,0,0,0,.26.8,50.45,50.45,0,0,0,3.07,4.74,32,32,0,0,0,19.19,12.81A55.17,55.17,0,0,0,235.22,577.91Z" transform="translate(-181 -402.21)"/>
    <path class="cls-1" d="M217.52,560.75a37.41,37.41,0,0,1,9.44,3.19c.25.14.48.41.88.36-3-5-3.46-7.08-4.13-10.09-.42-1.92-.73-3.88-1-5.84a50.45,50.45,0,0,0-6.12-18.89,27.47,27.47,0,0,0-2.42-3.86.31.31,0,0,0-.2.39c.52,3.86,0,7.71-.17,11.56a31.33,31.33,0,0,0,2,13.22c.47,1.15,1.06,2.25,1.59,3.37a59.16,59.16,0,0,0-9.59-6.26c-3.51-1.93-7.08-3.74-10.44-5.93-4.29-2.8-8.1-6.1-10.69-10.61-.09-.15-.18-.32-.42-.32a1.47,1.47,0,0,0,0,.42A52.08,52.08,0,0,0,192,545a30.33,30.33,0,0,0,13.7,12.06A70.55,70.55,0,0,0,217.52,560.75Z" transform="translate(-181 -402.21)"/>
    <path class="cls-1" d="M392.27,537.09A51.6,51.6,0,0,1,381,545c-3.26,1.79-6.56,3.49-9.72,5.45a45.1,45.1,0,0,0-5.25,3.9,2.71,2.71,0,0,1,.51-1.29,25,25,0,0,0,1.69-4,34,34,0,0,0,1.25-11.31c0-3-.43-6-.32-9,0-1,.13-2,.21-3.23-.25.21-.38.27-.45.38a54,54,0,0,0-6.16,12.58,80.46,80.46,0,0,0-2.64,13,30,30,0,0,1-4.42,12.3c-.1.14-.28.3,0,.53a28.32,28.32,0,0,1,8.18-3.1c3.74-1,7.52-1.75,11.16-3.06a30.75,30.75,0,0,0,14.57-10.55,42.22,42.22,0,0,0,5.36-9.74,32.79,32.79,0,0,0,2.12-7c-.28.44-.57.88-.84,1.32A27.13,27.13,0,0,1,392.27,537.09Z" transform="translate(-181 -402.21)"/>
    <path class="cls-1" d="M540.9,461.88c1,.15,1.06.13,1.07-.88q0-3.4,0-6.81c0-1.43-.12-1.56-1.55-1.59a9.39,9.39,0,0,0-8.07,4.32,19.66,19.66,0,0,0-1.76,3.12c-.37-.34-.25-.64-.26-.91-.1-1.68-.2-3.37-.25-5.05,0-.69-.28-.92-1-.91-2.27,0-4.54,0-6.81,0-.64,0-.9.25-.78.86a11.17,11.17,0,0,1,.16,2.16q0,9.63.07,19.26c0,5.85,0,11.69,0,17.53,0,1.21,0,1.24,1.2,1.24q3.46,0,6.95,0c1.31,0,1.32,0,1.32-1.4,0-6.52,0-13,0-19.55,0-.87,0-1.74,0-2.61a11,11,0,0,1,.43-2.85C532.83,463.65,536,461.14,540.9,461.88Z" transform="translate(-181 -402.21)"/>
    <path class="cls-1" d="M488.67,523.6a8.83,8.83,0,0,0-6.51,2.33,21.59,21.59,0,0,0-3.74,5c-.05-.57-.12-1.14-.15-1.71-.06-1.35-.13-2.71-.13-4.06,0-.78-.31-1-1-1q-3.35,0-6.67,0c-.72,0-1,.25-.84.94a25.52,25.52,0,0,1,.2,4.19l0,33.91c0,.34,0,.68,0,1-.07.68.2.94.9.93,2.51,0,5,0,7.54,0,1,0,1,0,1-1.09,0-.34,0-.68,0-1V542.9a14.32,14.32,0,0,1,.73-5,7.34,7.34,0,0,1,6.09-5.12,9,9,0,0,1,2.88.09c.93.15,1,.08,1-.85q0-3.54,0-7.1C490,523.76,489.89,523.66,488.67,523.6Z" transform="translate(-181 -402.21)"/>
    <path class="cls-1" d="M398.7,510.72a109.86,109.86,0,0,1-8.91,9.89,73.38,73.38,0,0,0-10.87,14.23c-.09.17-.13.46-.45.41a3.47,3.47,0,0,1,.15-1.29,38.44,38.44,0,0,0-.82-20.16,49.76,49.76,0,0,1-2.69-10.73.8.8,0,0,0-.49.57,38.23,38.23,0,0,0-2.3,11.44c-.18,4.52.55,9,1,13.42a49.22,49.22,0,0,1-.31,13.55,20.32,20.32,0,0,0-.69,3.77.5.5,0,0,0,.55-.23,27,27,0,0,1,4.74-3.79c3.64-2.46,7.39-4.76,10.82-7.53a35.55,35.55,0,0,0,13.07-20.92,43.67,43.67,0,0,0,.93-9.16,9.72,9.72,0,0,0-.5.9A23.88,23.88,0,0,1,398.7,510.72Z" transform="translate(-181 -402.21)"/>
    <path class="cls-1" d="M203,540a40.35,40.35,0,0,1,7.8,6s.14,0,.22,0a1.92,1.92,0,0,0-.12-.86,47.8,47.8,0,0,1-1.27-9.75,86.19,86.19,0,0,1,1-12.54,40.4,40.4,0,0,0-1.76-18.58c-.13-.38-.11-.88-.68-1.11a43.62,43.62,0,0,1-2.38,9.53,39.65,39.65,0,0,0-1.15,21.43,3.2,3.2,0,0,1,.18,1.57l-.61-1a66.87,66.87,0,0,0-7-9.91c-2.73-3.2-5.71-6.16-8.57-9.25a38.27,38.27,0,0,1-6.68-9.05c-.29-.59-.56-1.17-.84-1.76a22.87,22.87,0,0,0,.32,6.62,35.33,35.33,0,0,0,11.77,21.54A84.26,84.26,0,0,0,203,540Z" transform="translate(-181 -402.21)"/>
    <path class="cls-1" d="M192.12,512.66c2.68,2.84,5.43,5.64,7.14,9.24.05.12.19.23.41,0,0-.12,0-.3,0-.48a32.08,32.08,0,0,1,2.72-13.38c.91-2.13,1.85-4.24,2.84-6.34a40.71,40.71,0,0,0,4-17.07,4,4,0,0,0-.26-2.15c-.12.11-.26.18-.32.29a72.07,72.07,0,0,1-5.59,7.93,28.39,28.39,0,0,0-5.67,15.4c-.13,1.78-.11,3.56-.22,5.64a5.28,5.28,0,0,1-.3-.58,73.54,73.54,0,0,0-7.58-17c-2.72-4.67-5.47-9.34-5.87-15a8.37,8.37,0,0,0-.47,1.53,46.84,46.84,0,0,0-1,8.91,27.52,27.52,0,0,0,4.19,15.71A50.11,50.11,0,0,0,192.12,512.66Z" transform="translate(-181 -402.21)"/>
    <path class="cls-1" d="M386.49,511.05c-.06.25-.09.58-.5.65,0-1.36,0-2.71,0-4.07a28.67,28.67,0,0,0-5.94-17.21c-1.49-1.91-3-3.83-4.26-5.86-.44-.68-.86-1.38-1.44-2.32a7.35,7.35,0,0,0-.18.76,39.3,39.3,0,0,0,2.27,14.65c1.12,3.09,2.58,6,3.92,9a34,34,0,0,1,3.31,15.14c0,.17-.07.39.27.39a23,23,0,0,1,2.31-3.82c1-1.2,1.93-2.41,2.95-3.56,1.38-1.55,2.84-3,4.23-4.58a29.94,29.94,0,0,0,7-12.19,33.41,33.41,0,0,0,.9-10.49,39.13,39.13,0,0,0-1.34-8.32,3.7,3.7,0,0,0-.28,1.11,18.84,18.84,0,0,1-1.25,5.19,67.43,67.43,0,0,1-5.06,9.77A66.47,66.47,0,0,0,386.49,511.05Z" transform="translate(-181 -402.21)"/>
    <path class="cls-1" d="M738.66,525.83c0-.29,0-.58,0-.86,0-.54-.17-.79-.74-.79q-4,0-8,0c-.56,0-.8.23-.78.78,0,.38,0,.77,0,1.16v37.24c0,.34,0,.68,0,1,0,.54.2.79.76.78h8c.55,0,.8-.21.76-.77,0-.28,0-.57,0-.86Z" transform="translate(-181 -402.21)"/>
    <path class="cls-1" d="M621.05,524.18h-6.52c-1.88,0-1.69-.14-1.69,1.73v37.52c0,.34,0,.68,0,1s.21.7.69.7h8.11c.5,0,.69-.25.67-.72s0-.68,0-1V525.46C622.31,524.2,622.29,524.19,621.05,524.18Z" transform="translate(-181 -402.21)"/>
    <path class="cls-1" d="M195.13,498.2A53.78,53.78,0,0,1,197,493a43.53,43.53,0,0,1,6.79-10.57,59.53,59.53,0,0,0,10.34-17,29.14,29.14,0,0,0,1.58-5.11c-2.38,2.86-5.38,5-8.14,7.36a36.48,36.48,0,0,0-11.67,18.12c-.08.3,0,.68-.44.89a1.73,1.73,0,0,1-.25-1.23,37.87,37.87,0,0,0-.5-4.75c-.72-4.92-1.8-9.78-2.32-14.73a41.44,41.44,0,0,1-.26-6.5,31.93,31.93,0,0,1,1.14-7.26,35.17,35.17,0,0,0-4.37,7.49,29.54,29.54,0,0,0-2.64,12.8,33.38,33.38,0,0,0,2.59,11.38C190.69,488.62,193.75,492.84,195.13,498.2Z" transform="translate(-181 -402.21)"/>
    <path class="cls-1" d="M375.56,467.44c-2.59-2.23-5.36-4.28-7.59-6.91,0,0-.15,0-.28,0a3.27,3.27,0,0,0,.09.56,58.29,58.29,0,0,0,5.83,13.05,116,116,0,0,0,7.52,10.1,37.72,37.72,0,0,1,6.15,10.94c.3.88.59,1.77,1,2.93.31-1,.51-1.81.78-2.56a44.55,44.55,0,0,1,2.58-5.51,67.25,67.25,0,0,0,3.82-8.59,29.15,29.15,0,0,0,1.72-10.37,31.71,31.71,0,0,0-4.27-14.73,16.67,16.67,0,0,0-2.49-3.68c.28,1.76.67,3.44.8,5.17.4,5.25-.41,10.4-1.27,15.55a103.61,103.61,0,0,0-1.71,11.88,17.42,17.42,0,0,1-.29,1.83c-.2-.58-.31-.85-.38-1.12A37.16,37.16,0,0,0,375.56,467.44Z" transform="translate(-181 -402.21)"/>
    <path class="cls-1" d="M289,516.11a19.61,19.61,0,0,0-5.47,2.92c-2.79,2.14-3.82,5.07-2.89,8.17a9.09,9.09,0,0,0,3.91,4.86,3.86,3.86,0,0,0,2.18,1.07c0-.36,0-.65,0-.93,0-1.93,0-3.87-.1-5.8a2.63,2.63,0,0,1,1.35-2.53,8.4,8.4,0,0,1,1.13-.64c2.49-1,5-2,7.59-2.82a35.75,35.75,0,0,0,8.57-3.44,9.79,9.79,0,0,0,4.53-5.09,10.63,10.63,0,0,0-2.14-11.07c-2.77-3.1-6.52-4.5-10.48-5.93-.07,2.8-.13,5.43-.21,8.07,0,.56.37.72.76.92a22.33,22.33,0,0,1,2.16,1.17,3.78,3.78,0,0,1,1.9,3.8,4.5,4.5,0,0,1-1.95,2.94,12.71,12.71,0,0,1-3.72,1.9C293.79,514.49,291.4,515.27,289,516.11Z" transform="translate(-181 -402.21)"/>
    <path class="cls-1" d="M197,475.44a1.94,1.94,0,0,0,.67-.95,37.44,37.44,0,0,1,10.77-13.25c2.61-2,5.26-3.94,7.86-5.93a26.81,26.81,0,0,0,7.71-9.09,19.85,19.85,0,0,0,1.95-5.11,28,28,0,0,1-6.21,4.64c-1.68,1-3.4,2-5.07,3.09a42.12,42.12,0,0,0-9.78,8.32c-1.27,1.51-2.32,3.19-3.49,4.79,1.14-4.53,1.51-9.15,2.17-13.73.71-4.92,1.53-9.8,4.5-14.1a1.75,1.75,0,0,0-1.07.56,32.13,32.13,0,0,0-4.67,4.73c-4.24,5.42-6,11.67-6.3,18.45a112.55,112.55,0,0,0,.75,14.45C196.83,473.32,196.88,474.34,197,475.44Z" transform="translate(-181 -402.21)"/>
    <path class="cls-1" d="M379.6,446.67c.8,5.1,1.13,10.26,2.54,15.3-.36-.14-.46-.42-.6-.65a35.4,35.4,0,0,0-10.17-10.76c-2.55-1.84-5.28-3.39-7.95-5a24.3,24.3,0,0,1-6-4.56,26.45,26.45,0,0,0,7.42,12.33,63.94,63.94,0,0,0,7.19,5.61,40.21,40.21,0,0,1,13.91,16c.11.23.14.58.57.52a48.3,48.3,0,0,1,.43-7.51,58.79,58.79,0,0,0-.06-14.58,29.08,29.08,0,0,0-10.74-18.92,1.5,1.5,0,0,0-.95-.48,19.83,19.83,0,0,1,2,3.41A37.33,37.33,0,0,1,379.6,446.67Z" transform="translate(-181 -402.21)"/>
    <path class="cls-1" d="M273.07,434.89a13,13,0,0,0-5.49,3.11,39.43,39.43,0,0,0-4.39,5.18,9.15,9.15,0,0,0-1.7,3.64A15.14,15.14,0,0,1,260,451a4.12,4.12,0,0,0-.5,1.65,5.89,5.89,0,0,1-4.74,5.46,1.08,1.08,0,0,0-.76.36c1,.31,2-.4,3.07-.32-.1.41-.16.75-.24,1.07a1.61,1.61,0,0,0-.08,1.18c.33-.58.57-1,.8-1.41a21.74,21.74,0,0,1,2.07-3.13,2.43,2.43,0,0,1,2.19-1.14,5.72,5.72,0,0,0,2.38-.56,24.28,24.28,0,0,0,3.88-1.95c4.13-2.5,8.32-4.89,11.36-8.82a11.85,11.85,0,0,1,4.69-3.32c.44-.2.87-.37.85-1-.1-2.74-.17-5.48-.26-8.34a13.51,13.51,0,0,0-3.26,1A49.14,49.14,0,0,1,273.07,434.89ZM267,445.51a14.26,14.26,0,0,1,2-3.42c.31-.41,1.36-.32,2.51.1C270,443.37,269.31,445.35,267,445.51Z" transform="translate(-181 -402.21)"/>
    <path class="cls-1" d="M289.9,513.18c1.06-.31,2.12-.64,3.18-1,1.25-.39,1.25-.4,1.27-1.68.12-5.65.33-11.29.36-16.94,0-.48,0-1,0-1.45.28-5.2.08-10.42.38-15.63.06-1.12-.08-1.21-1.13-.93-1.45.38-2.88.8-4.31,1.24s-1.37.43-1.35,1.87q.26,13.9.52,27.8c0,2,0,3.95.09,5.93C288.94,513.44,289,513.45,289.9,513.18Z" transform="translate(-181 -402.21)"/>
    <path class="cls-1" d="M350.48,422.45a30.71,30.71,0,0,1,6.19,8.69A31.12,31.12,0,0,0,368.06,444a50.46,50.46,0,0,1,6.77,5c.68.6,1.34,1.22,2,1.85a1.37,1.37,0,0,0,0-1.06,40.12,40.12,0,0,0-9.13-17.38,36.08,36.08,0,0,0-16.8-10.88,5.34,5.34,0,0,0-1.73-.31A4.74,4.74,0,0,0,350.48,422.45Z" transform="translate(-181 -402.21)"/>
    <path class="cls-1" d="M208.34,449.21a75.85,75.85,0,0,1,7.63-5.72,34.38,34.38,0,0,0,5.76-4.8,36.78,36.78,0,0,0,4.68-7.12,46.94,46.94,0,0,1,4.57-7,45.28,45.28,0,0,1,3.4-3.34c-14.42,2.85-26.07,17.41-27.78,29.6C207.21,450.24,207.77,449.72,208.34,449.21Z" transform="translate(-181 -402.21)"/>
    <path class="cls-1" d="M289.19,527.44c.14,7,.31,14.1.44,21.15.08,3.91.09,7.83.15,11.74a10.46,10.46,0,0,0,.65,3.83c.21.51.5,1,1.09,1.05s1-.52,1.21-1.07a10.08,10.08,0,0,0,.64-3.68c.11-5.75.19-11.5.32-17.25.09-3.91.05-7.82.22-11.73.12-2.45,0-4.92,0-7.57l-3.09,1.17C289.18,525.71,289.16,525.71,289.19,527.44Z" transform="translate(-181 -402.21)"/>
    <path class="cls-2" d="M737.79,515.58q-.06-3.92,0-7.83c0-.8-.33-1-1-1-2.56,0-5.12,0-7.69,0-1.06,0-1.07,0-1.08,1.17s0,2.42,0,3.63,0,2.61,0,3.91c0,1,.06,1,1.09,1.06,2.57,0,5.13,0,7.69,0C737.49,516.59,737.8,516.35,737.79,515.58Z" transform="translate(-181 -402.21)"/>
    <path class="cls-1" d="M621.49,506.78q-3.91,0-7.82,0c-.68,0-1,.19-.94.9,0,1.31,0,2.61,0,3.92s0,2.7,0,4c0,.69.23.94.92.93,2.61,0,5.22,0,7.83,0,.68,0,.94-.22.94-.92,0-2.65,0-5.31,0-8C622.42,507,622.17,506.78,621.49,506.78Z" transform="translate(-181 -402.21)"/>
    <path class="cls-2" d="M301.59,541.37a18.09,18.09,0,0,1,3.75,5.62c.78-5.93-2.6-11.62-8.91-14,0,1.28,0,2.53-.11,3.76a1.43,1.43,0,0,0,.91,1.59A17.86,17.86,0,0,1,301.59,541.37Z" transform="translate(-181 -402.21)"/>
    <path class="cls-3" d="M299.54,451.19a26.42,26.42,0,0,1,4.91,1.19c1.14.37,2.28.76,3.41,1.19.52.2.83.07,1-.43.08-.23.19-.45.26-.67.35-1,.35-1-.69-1.46a39.75,39.75,0,0,0-5.65-1.76c-1.27-.29-2.54-.55-3.81-.82-.7-.07-.85.3-.84.88C298.17,450.56,297.73,451,299.54,451.19Z" transform="translate(-181 -402.21)"/>
    <path class="cls-4" d="M285.8,482.25c-.05-1.2-.11-2.4-.17-3.72a5,5,0,0,0-3.39,4.8,5,5,0,0,0,3.6,4.46c.31-.71-.24-1.05-.62-1.46-.74-.78-.88-1.18-.14-1.77S285.83,483.09,285.8,482.25Z" transform="translate(-181 -402.21)"/>
    <path class="cls-5" d="M307.14,426.49a7.56,7.56,0,0,0-5.25-.43,9.49,9.49,0,0,1-2.19.39c-.26,0-.59-.09-.66.21s.15.33.27.35a43.6,43.6,0,0,0,6.76.29A1,1,0,0,0,307.14,426.49Z" transform="translate(-181 -402.21)"/>
    <path class="cls-6" d="M296.94,506.57a29.22,29.22,0,0,0,0,4c1.54-.45,2.41-1.31,2.34-2.25S298.44,506.87,296.94,506.57Z" transform="translate(-181 -402.21)"/>
    <path class="cls-7" d="M328,436.8c-1-.51-1-.51-2.24.65,1.36.54,2.3,1.51,3.53,2.08C329.53,438,329.24,437.43,328,436.8Z" transform="translate(-181 -402.21)"/>
    <path class="cls-8" d="M255.75,460.36c.26-.32.48-.73.14-1a.86.86,0,0,0-1.13.11C255,459.91,255.26,460.26,255.75,460.36Z" transform="translate(-181 -402.21)"/>
    <path class="cls-9" d="M231.11,530.27c-.69-1.36-.66-2.82-2.53-3.29C229.5,528.87,230.07,529.64,231.11,530.27Z" transform="translate(-181 -402.21)"/>
    <path class="cls-10" d="M256.76,502.92a6.35,6.35,0,0,0,1.46,3.23c.64-.82.34-1.52.13-2.32C258.09,502.87,257.22,503.37,256.76,502.92Z" transform="translate(-181 -402.21)"/>
    <path class="cls-11" d="M322.5,474.86a7.8,7.8,0,0,0,1.36-.47,1.38,1.38,0,0,0,.5-2.14,8.08,8.08,0,0,0-.63-.79c-.46-.5-.13-.88.18-1.25s.6-.07.87.09c.49.28.86.77,1.56.83.19-.67-.85-1.07-.17-1.64.39-.32.24-.53,0-.82s-.52-.56-1-.31a9.58,9.58,0,0,0-1.14.61c-.75.58-1.46,1.57-1.2,2.31.45,1.3.82,2.22-.87,2.72-.2.06-.16.44-.09.67S322.27,474.93,322.5,474.86Z" transform="translate(-181 -402.21)"/>
</svg>
